<svg width="32" height="32" viewBox="0 0 32 32" fill="none" xmlns="http://www.w3.org/2000/svg">
<g clip-path="url(#clip0_2457_485)">
<path d="M16 32C24.8366 32 32 24.8366 32 16C32 7.16344 24.8366 0 16 0C7.16344 0 0 7.16344 0 16C0 24.8366 7.16344 32 16 32Z" fill="#C00200"/>
<g clip-path="url(#clip1_2457_485)">
<path fill-rule="evenodd" clip-rule="evenodd" d="M11.0359 6.6823C10.6558 6.58593 10.2695 6.81595 10.1732 7.19604C10.0768 7.57614 10.3068 7.96239 10.6869 8.05876L11.526 8.27149L11.4914 18.7054C10.6869 18.8433 9.99888 19.4399 9.78534 20.2821C9.49624 21.4224 10.1863 22.5812 11.3266 22.8703C12.4669 23.1594 13.6256 22.4694 13.9147 21.329C13.9759 21.0877 13.9932 20.8456 13.9717 20.611L16.9596 21.3685C16.829 21.5645 16.7288 21.7857 16.6676 22.027C16.3785 23.1673 17.0685 24.326 18.2089 24.6151C19.3492 24.9042 20.5079 24.2142 20.797 23.0739C21.0861 21.9336 20.3961 20.7748 19.2558 20.4857L12.9108 18.8771L12.9157 17.4134L19.6048 19.1093C21.0254 19.4695 22.1048 18.7879 22.8287 17.9167C23.5362 17.0653 23.9904 15.9486 24.2599 15.121C24.6352 13.9683 23.8825 12.8691 22.8094 12.5971L12.94 10.0949L12.946 8.27621C12.9482 7.62461 12.5066 7.05517 11.875 6.89503L11.0359 6.6823ZM19.9537 17.7328L12.9206 15.9497L12.9351 11.5586L22.4604 13.9736C22.8411 14.0701 22.9987 14.4079 22.9097 14.6813C22.6582 15.4536 22.271 16.366 21.7366 17.0092C21.2187 17.6324 20.6558 17.9108 19.9537 17.7328ZM18.5589 23.2344C18.1812 23.1386 17.9526 22.7548 18.0484 22.377C18.1441 21.9993 18.528 21.7707 18.9057 21.8665C19.2835 21.9622 19.5121 22.3461 19.4163 22.7238C19.3205 23.1016 18.9367 23.3302 18.5589 23.2344ZM11.166 20.6322C11.0703 21.0099 11.2989 21.3938 11.6766 21.4895C12.0544 21.5853 12.4382 21.3568 12.534 20.979C12.6298 20.6012 12.4012 20.2174 12.0234 20.1216C11.6457 20.0258 11.2618 20.2544 11.166 20.6322Z" fill="white"/>
</g>
</g>
<defs>
<clipPath id="clip0_2457_485">
<rect width="32" height="32" fill="white"/>
</clipPath>
<clipPath id="clip1_2457_485">
<rect width="17.0401" height="17.0401" fill="white" transform="translate(9.83496 5.64648) rotate(14.2264)"/>
</clipPath>
</defs>
</svg>
