<svg width="139" height="41" viewBox="0 0 139 41" fill="none" xmlns="http://www.w3.org/2000/svg">
<path d="M133.668 41.0034H5.14107C2.31477 41.0034 0 38.7434 0 35.984V5.86731C0 3.10787 2.31477 0.847867 5.14107 0.847867H133.668C136.494 0.847867 138.809 3.10787 138.809 5.86731V35.984C138.809 38.7434 136.494 41.0034 133.668 41.0034Z" fill="black"/>
<path d="M133.668 1.65223C136.048 1.65223 137.985 3.54331 137.985 5.86731V35.984C137.985 38.308 136.048 40.1991 133.668 40.1991H5.14107C2.76076 40.1991 0.823856 38.308 0.823856 35.984V5.86731C0.823856 3.54331 2.76076 1.65223 5.14107 1.65223H133.668ZM133.668 0.847867H5.14107C2.31477 0.847867 0 3.10787 0 5.86731V35.984C0 38.7434 2.31477 41.0034 5.14107 41.0034H133.668C136.494 41.0034 138.809 38.7434 138.809 35.984V5.86731C138.809 3.10787 136.494 0.847867 133.668 0.847867Z" fill="#A6A6A6"/>
<path d="M48.7556 11.1321C48.7556 11.9704 48.4986 12.6417 47.9922 13.1424C47.41 13.736 46.6517 14.0346 45.7224 14.0346C44.8343 14.0346 44.076 13.7309 43.4539 13.1324C42.8306 12.525 42.5195 11.7796 42.5195 10.8874C42.5195 9.99522 42.8306 9.24983 43.4539 8.6475C44.076 8.04391 44.8343 7.74023 45.7224 7.74023C46.1646 7.74023 46.5861 7.82933 46.9884 7.99497C47.3894 8.16187 47.7159 8.38774 47.9524 8.66632L47.4151 9.19587C47.0025 8.72028 46.4409 8.48562 45.7224 8.48562C45.0746 8.48562 44.513 8.70648 44.0361 9.15195C43.5645 9.59868 43.328 10.1772 43.328 10.8874C43.328 11.5977 43.5645 12.1812 44.0361 12.6279C44.513 13.0684 45.0746 13.2942 45.7224 13.2942C46.41 13.2942 46.9884 13.0684 47.4447 12.6229C47.7454 12.328 47.9164 11.9214 47.9614 11.4019H45.7224V10.6766H48.7094C48.7454 10.8335 48.7556 10.9853 48.7556 11.1321Z" fill="white" stroke="white" stroke-width="0.16" stroke-miterlimit="10"/>
<path d="M53.4946 8.61704H50.6888V10.5244H53.2182V11.2497H50.6888V13.1571H53.4946V13.8962H49.8945V7.87793H53.4946V8.61704Z" fill="white" stroke="white" stroke-width="0.16" stroke-miterlimit="10"/>
<path d="M56.8395 13.8962H56.0452V8.61704H54.3242V7.87793H58.5617V8.61704H56.8395V13.8962Z" fill="white" stroke="white" stroke-width="0.16" stroke-miterlimit="10"/>
<path d="M61.627 13.8962V7.87793H62.42V13.8962H61.627Z" fill="white" stroke="white" stroke-width="0.16" stroke-miterlimit="10"/>
<path d="M65.9352 13.8962H65.1473V8.61704H63.4199V7.87793H67.6626V8.61704H65.9352V13.8962Z" fill="white" stroke="white" stroke-width="0.16" stroke-miterlimit="10"/>
<path d="M75.6848 13.1223C75.0769 13.7309 74.3237 14.0346 73.4253 14.0346C72.5217 14.0346 71.7686 13.7309 71.1606 13.1223C70.554 12.515 70.252 11.7696 70.252 10.8874C70.252 10.0053 70.554 9.25987 71.1606 8.65252C71.7686 8.04391 72.5217 7.74023 73.4253 7.74023C74.3185 7.74023 75.0717 8.04391 75.6796 8.65754C76.2914 9.26991 76.5935 10.0103 76.5935 10.8874C76.5935 11.7696 76.2914 12.515 75.6848 13.1223ZM71.748 12.6179C72.2056 13.0684 72.7621 13.2942 73.4253 13.2942C74.0833 13.2942 74.645 13.0684 75.0974 12.6179C75.5537 12.1674 75.785 11.5889 75.785 10.8874C75.785 10.186 75.5537 9.60747 75.0974 9.15697C74.645 8.70648 74.0833 8.4806 73.4253 8.4806C72.7621 8.4806 72.2056 8.70648 71.748 9.15697C71.2917 9.60747 71.0604 10.186 71.0604 10.8874C71.0604 11.5889 71.2917 12.1674 71.748 12.6179Z" fill="white" stroke="white" stroke-width="0.16" stroke-miterlimit="10"/>
<path d="M77.709 13.8962V7.87793H78.6729L81.6702 12.5586H81.7049L81.6702 11.4016V7.87793H82.4632V13.8962H81.6355L78.4969 8.98472H78.4621L78.4969 10.1467V13.8962H77.709Z" fill="white" stroke="white" stroke-width="0.16" stroke-miterlimit="10"/>
<path d="M70.0567 22.6852C67.6417 22.6852 65.6688 24.4796 65.6688 26.9555C65.6688 29.4112 67.6417 31.2245 70.0567 31.2245C72.4769 31.2245 74.4498 29.4112 74.4498 26.9555C74.4498 24.4796 72.4769 22.6852 70.0567 22.6852ZM70.0567 29.543C68.7316 29.543 67.5916 28.4751 67.5916 26.9555C67.5916 25.4158 68.7316 24.3667 70.0567 24.3667C71.3818 24.3667 72.527 25.4158 72.527 26.9555C72.527 28.4751 71.3818 29.543 70.0567 29.543ZM60.4828 22.6852C58.0626 22.6852 56.0949 24.4796 56.0949 26.9555C56.0949 29.4112 58.0626 31.2245 60.4828 31.2245C62.9016 31.2245 64.8707 29.4112 64.8707 26.9555C64.8707 24.4796 62.9016 22.6852 60.4828 22.6852ZM60.4828 29.543C59.1564 29.543 58.0125 28.4751 58.0125 26.9555C58.0125 25.4158 59.1564 24.3667 60.4828 24.3667C61.8079 24.3667 62.9479 25.4158 62.9479 26.9555C62.9479 28.4751 61.8079 29.543 60.4828 29.543ZM49.0902 23.994V25.8085H53.5282C53.3984 26.8225 53.0513 27.5678 52.5192 28.0874C51.8715 28.7148 50.8625 29.4112 49.0902 29.4112C46.359 29.4112 44.2203 27.2591 44.2203 24.5926C44.2203 21.926 46.359 19.7739 49.0902 19.7739C50.5669 19.7739 51.6414 20.3373 52.4344 21.0677L53.7441 19.789C52.6349 18.755 51.1594 17.9606 49.0902 17.9606C45.3449 17.9606 42.1973 20.9359 42.1973 24.5926C42.1973 28.2492 45.3449 31.2245 49.0902 31.2245C51.1145 31.2245 52.6349 30.577 53.8302 29.3623C55.0551 28.1664 55.4368 26.4849 55.4368 25.1271C55.4368 24.7055 55.4008 24.3178 55.3366 23.994H49.0902ZM95.676 25.4007C95.3148 24.4457 94.2005 22.6852 91.9307 22.6852C89.6815 22.6852 87.8088 24.4156 87.8088 26.9555C87.8088 29.3472 89.6622 31.2245 92.1466 31.2245C94.1555 31.2245 95.3148 30.0286 95.7916 29.3322L94.3007 28.3622C93.8033 29.0724 93.126 29.543 92.1466 29.543C91.1737 29.543 90.4758 29.1076 90.0285 28.2492L95.8778 25.8863L95.676 25.4007ZM89.7123 26.8225C89.6622 25.1761 91.022 24.3328 91.9962 24.3328C92.7597 24.3328 93.4075 24.7055 93.6234 25.2388L89.7123 26.8225ZM84.9581 30.9647H86.8809V18.4161H84.9581V30.9647ZM81.8092 23.6364H81.7449C81.3131 23.1369 80.4892 22.6852 79.4456 22.6852C77.2555 22.6852 75.2531 24.5624 75.2531 26.9693C75.2531 29.3623 77.2555 31.2245 79.4456 31.2245C80.4892 31.2245 81.3131 30.769 81.7449 30.2545H81.8092V30.8669C81.8092 32.4994 80.916 33.3766 79.4752 33.3766C78.3004 33.3766 77.5717 32.5484 77.2709 31.8519L75.5988 32.5333C76.0808 33.6652 77.357 35.0581 79.4752 35.0581C81.7295 35.0581 83.6317 33.7631 83.6317 30.6121V22.9449H81.8092V23.6364ZM79.6101 29.543C78.285 29.543 77.1758 28.46 77.1758 26.9693C77.1758 25.4647 78.285 24.3667 79.6101 24.3667C80.916 24.3667 81.9455 25.4647 81.9455 26.9693C81.9455 28.46 80.916 29.543 79.6101 29.543ZM104.678 18.4161H100.079V30.9647H101.997V26.2101H104.678C106.808 26.2101 108.896 24.7055 108.896 22.3125C108.896 19.9207 106.803 18.4161 104.678 18.4161ZM104.728 24.4646H101.997V20.1617H104.728C106.16 20.1617 106.977 21.3224 106.977 22.3125C106.977 23.2837 106.16 24.4646 104.728 24.4646ZM116.582 22.6613C115.197 22.6613 113.756 23.2586 113.163 24.5825L114.865 25.279C115.231 24.5825 115.905 24.3567 116.617 24.3567C117.612 24.3567 118.621 24.9402 118.636 25.9704V26.1022C118.289 25.9064 117.546 25.6165 116.632 25.6165C114.799 25.6165 112.932 26.6016 112.932 28.44C112.932 30.1215 114.433 31.2044 116.121 31.2044C117.411 31.2044 118.123 30.636 118.57 29.9747H118.636V30.9447H120.488V26.131C120.488 23.9062 118.786 22.6613 116.582 22.6613ZM116.351 29.538C115.724 29.538 114.85 29.2343 114.85 28.4751C114.85 27.5038 115.939 27.1311 116.883 27.1311C117.727 27.1311 118.123 27.3131 118.636 27.5528C118.486 28.7148 117.461 29.538 116.351 29.538ZM127.236 22.9361L125.031 28.376H124.966L122.687 22.9361H120.619L124.043 30.5381L122.089 34.7682H124.093L129.369 22.9361H127.236ZM109.95 30.9647H111.873V18.4161H109.95V30.9647Z" fill="white"/>
<path d="M10.7288 8.41658C10.4267 8.72528 10.252 9.20589 10.252 9.8283V32.0293C10.252 32.6517 10.4267 33.1323 10.7288 33.441L10.8033 33.5088L23.5455 21.0731V20.7795L10.8033 8.3438L10.7288 8.41658Z" fill="url(#paint0_linear_919_1607)"/>
<path d="M27.7895 25.2197L23.5469 21.0724V20.7788L27.7947 16.6315L27.8898 16.6854L32.9203 19.48C34.356 20.2731 34.356 21.5781 32.9203 22.3762L27.8898 25.1658L27.7895 25.2197Z" fill="url(#paint1_linear_919_1607)"/>
<path d="M27.8881 25.166L23.5452 20.9258L10.7285 33.4405C11.2053 33.9299 11.9829 33.9889 12.8672 33.4995L27.8881 25.166Z" fill="url(#paint2_linear_919_1607)"/>
<path d="M27.8881 16.6856L12.8672 8.35208C11.9829 7.8677 11.2053 7.92668 10.7285 8.41607L23.5452 20.9258L27.8881 16.6856Z" fill="url(#paint3_linear_919_1607)"/>
<defs>
<linearGradient id="paint0_linear_919_1607" x1="22.4141" y1="32.2605" x2="5.57129" y2="15.0096" gradientUnits="userSpaceOnUse">
<stop stop-color="#00A0FF"/>
<stop offset="0.0066" stop-color="#00A1FF"/>
<stop offset="0.2601" stop-color="#00BEFF"/>
<stop offset="0.5122" stop-color="#00D2FF"/>
<stop offset="0.7604" stop-color="#00DFFF"/>
<stop offset="1" stop-color="#00E3FF"/>
</linearGradient>
<linearGradient id="paint1_linear_919_1607" x1="34.7898" y1="20.9242" x2="9.91019" y2="20.9242" gradientUnits="userSpaceOnUse">
<stop stop-color="#FFE000"/>
<stop offset="0.4087" stop-color="#FFBD00"/>
<stop offset="0.7754" stop-color="#FFA500"/>
<stop offset="1" stop-color="#FF9C00"/>
</linearGradient>
<linearGradient id="paint2_linear_919_1607" x1="25.5266" y1="18.6208" x2="2.68632" y2="-4.77294" gradientUnits="userSpaceOnUse">
<stop stop-color="#FF3A44"/>
<stop offset="1" stop-color="#C31162"/>
</linearGradient>
<linearGradient id="paint3_linear_919_1607" x1="7.50229" y1="40.8267" x2="17.7015" y2="30.3804" gradientUnits="userSpaceOnUse">
<stop stop-color="#32A071"/>
<stop offset="0.0685" stop-color="#2DA771"/>
<stop offset="0.4762" stop-color="#15CF74"/>
<stop offset="0.8009" stop-color="#06E775"/>
<stop offset="1" stop-color="#00F076"/>
</linearGradient>
</defs>
</svg>
