<svg width="163" height="48" viewBox="0 0 163 48" fill="none" xmlns="http://www.w3.org/2000/svg">
<g clip-path="url(#clip0_3158_10427)">
<path d="M157 1H6C3.23858 1 1 3.23858 1 6V42C1 44.7614 3.23858 47 6 47H157C159.761 47 162 44.7614 162 42V6C162 3.23858 159.761 1 157 1Z" stroke="white" stroke-width="2"/>
<path d="M57.2642 30.9999V16.4544H63.0881C64.1581 16.4544 65.0507 16.6131 65.7656 16.9303C66.4806 17.2475 67.018 17.6879 67.3778 18.2513C67.7377 18.81 67.9176 19.454 67.9176 20.1831C67.9176 20.7513 67.804 21.2508 67.5767 21.6817C67.3494 22.1079 67.0369 22.4582 66.6392 22.7329C66.2462 23.0027 65.7964 23.1945 65.2898 23.3081V23.4502C65.8438 23.4739 66.3622 23.6301 66.8452 23.9189C67.3329 24.2078 67.7282 24.6126 68.0312 25.1334C68.3343 25.6495 68.4858 26.2651 68.4858 26.98C68.4858 27.7518 68.294 28.4407 67.9105 29.0468C67.5317 29.6481 66.9706 30.124 66.2273 30.4743C65.4839 30.8247 64.5677 30.9999 63.4787 30.9999H57.2642ZM60.3395 28.4857H62.8466C63.7036 28.4857 64.3286 28.3223 64.7216 27.9956C65.1146 27.6642 65.3111 27.2239 65.3111 26.6746C65.3111 26.2722 65.214 25.917 65.0199 25.6093C64.8258 25.3015 64.5488 25.06 64.1889 24.8848C63.8338 24.7097 63.41 24.6221 62.9176 24.6221H60.3395V28.4857ZM60.3395 22.5411H62.6193C63.0407 22.5411 63.4148 22.4677 63.7415 22.3209C64.0729 22.1694 64.3333 21.9563 64.5227 21.6817C64.7169 21.4071 64.8139 21.078 64.8139 20.6945C64.8139 20.1689 64.6269 19.7452 64.2528 19.4232C63.8835 19.1012 63.358 18.9402 62.6761 18.9402H60.3395V22.5411ZM75.559 31.213C74.4558 31.213 73.5017 30.9786 72.6968 30.5098C71.8966 30.0364 71.2787 29.3782 70.8431 28.5354C70.4075 27.6879 70.1897 26.7054 70.1897 25.588C70.1897 24.4611 70.4075 23.4762 70.8431 22.6334C71.2787 21.7859 71.8966 21.1277 72.6968 20.659C73.5017 20.1855 74.4558 19.9488 75.559 19.9488C76.6622 19.9488 77.6139 20.1855 78.4141 20.659C79.2191 21.1277 79.8393 21.7859 80.2749 22.6334C80.7105 23.4762 80.9283 24.4611 80.9283 25.588C80.9283 26.7054 80.7105 27.6879 80.2749 28.5354C79.8393 29.3782 79.2191 30.0364 78.4141 30.5098C77.6139 30.9786 76.6622 31.213 75.559 31.213ZM75.5732 28.8692C76.0751 28.8692 76.4942 28.7272 76.8303 28.4431C77.1665 28.1543 77.4198 27.7613 77.5903 27.2641C77.7655 26.7669 77.8531 26.2011 77.8531 25.5667C77.8531 24.9322 77.7655 24.3664 77.5903 23.8692C77.4198 23.3721 77.1665 22.9791 76.8303 22.6902C76.4942 22.4014 76.0751 22.257 75.5732 22.257C75.0666 22.257 74.6405 22.4014 74.2948 22.6902C73.9539 22.9791 73.6959 23.3721 73.5207 23.8692C73.3502 24.3664 73.265 24.9322 73.265 25.5667C73.265 26.2011 73.3502 26.7669 73.5207 27.2641C73.6959 27.7613 73.9539 28.1543 74.2948 28.4431C74.6405 28.7272 75.0666 28.8692 75.5732 28.8692ZM88.0246 31.213C86.9214 31.213 85.9674 30.9786 85.1624 30.5098C84.3622 30.0364 83.7443 29.3782 83.3087 28.5354C82.8731 27.6879 82.6553 26.7054 82.6553 25.588C82.6553 24.4611 82.8731 23.4762 83.3087 22.6334C83.7443 21.7859 84.3622 21.1277 85.1624 20.659C85.9674 20.1855 86.9214 19.9488 88.0246 19.9488C89.1279 19.9488 90.0796 20.1855 90.8798 20.659C91.6847 21.1277 92.3049 21.7859 92.7406 22.6334C93.1762 23.4762 93.394 24.4611 93.394 25.588C93.394 26.7054 93.1762 27.6879 92.7406 28.5354C92.3049 29.3782 91.6847 30.0364 90.8798 30.5098C90.0796 30.9786 89.1279 31.213 88.0246 31.213ZM88.0388 28.8692C88.5407 28.8692 88.9598 28.7272 89.296 28.4431C89.6321 28.1543 89.8854 27.7613 90.0559 27.2641C90.2311 26.7669 90.3187 26.2011 90.3187 25.5667C90.3187 24.9322 90.2311 24.3664 90.0559 23.8692C89.8854 23.3721 89.6321 22.9791 89.296 22.6902C88.9598 22.4014 88.5407 22.257 88.0388 22.257C87.5322 22.257 87.1061 22.4014 86.7604 22.6902C86.4195 22.9791 86.1615 23.3721 85.9863 23.8692C85.8158 24.3664 85.7306 24.9322 85.7306 25.5667C85.7306 26.2011 85.8158 26.7669 85.9863 27.2641C86.1615 27.7613 86.4195 28.1543 86.7604 28.4431C87.1061 28.7272 87.5322 28.8692 88.0388 28.8692ZM98.3028 27.8607L98.3099 24.2314H98.7502L102.245 20.0908H105.718L101.023 25.5738H100.306L98.3028 27.8607ZM95.5613 30.9999V16.4544H98.5869V30.9999H95.5613ZM102.379 30.9999L99.1692 26.2485L101.186 24.1107L105.924 30.9999H102.379ZM110.513 31.2059C109.817 31.2059 109.196 31.0851 108.652 30.8437C108.107 30.5974 107.677 30.2352 107.359 29.757C107.047 29.274 106.891 28.6727 106.891 27.953C106.891 27.347 107.002 26.838 107.224 26.426C107.447 26.0141 107.75 25.6827 108.133 25.4317C108.517 25.1808 108.953 24.9914 109.44 24.8635C109.933 24.7357 110.449 24.6457 110.989 24.5937C111.623 24.5274 112.134 24.4658 112.523 24.409C112.911 24.3474 113.193 24.2575 113.368 24.1391C113.543 24.0207 113.631 23.8455 113.631 23.6135V23.5709C113.631 23.1211 113.489 22.7731 113.204 22.5269C112.925 22.2807 112.527 22.1576 112.011 22.1576C111.467 22.1576 111.034 22.2783 110.712 22.5198C110.39 22.7565 110.177 23.0548 110.072 23.4147L107.274 23.1874C107.416 22.5245 107.695 21.9516 108.112 21.4687C108.529 20.981 109.066 20.6069 109.724 20.3465C110.387 20.0813 111.154 19.9488 112.025 19.9488C112.632 19.9488 113.212 20.0198 113.766 20.1618C114.324 20.3039 114.819 20.524 115.25 20.8223C115.686 21.1206 116.029 21.5042 116.28 21.9729C116.531 22.4369 116.656 22.9933 116.656 23.6419V30.9999H113.787V29.4871H113.702C113.526 29.828 113.292 30.1287 112.999 30.3891C112.705 30.6448 112.352 30.846 111.94 30.9928C111.528 31.1348 111.052 31.2059 110.513 31.2059ZM111.379 29.1178C111.824 29.1178 112.217 29.0302 112.558 28.855C112.899 28.6751 113.167 28.4336 113.361 28.1306C113.555 27.8276 113.652 27.4843 113.652 27.1008V25.9431C113.557 26.0046 113.427 26.0615 113.261 26.1135C113.1 26.1609 112.918 26.2059 112.714 26.2485C112.511 26.2864 112.307 26.3219 112.104 26.355C111.9 26.3834 111.715 26.4095 111.55 26.4331C111.195 26.4852 110.884 26.5681 110.619 26.6817C110.354 26.7954 110.148 26.9492 110.001 27.1434C109.855 27.3328 109.781 27.5695 109.781 27.8536C109.781 28.2655 109.93 28.5804 110.229 28.7982C110.532 29.0113 110.915 29.1178 111.379 29.1178ZM124.132 31.213C123.015 31.213 122.054 30.9762 121.249 30.5027C120.449 30.0245 119.833 29.3616 119.402 28.5141C118.976 27.6666 118.763 26.6912 118.763 25.588C118.763 24.4705 118.979 23.4904 119.409 22.6476C119.845 21.8001 120.463 21.1396 121.263 20.6661C122.063 20.1879 123.015 19.9488 124.118 19.9488C125.07 19.9488 125.903 20.1216 126.618 20.4672C127.333 20.8129 127.899 21.2982 128.316 21.9232C128.732 22.5482 128.962 23.2821 129.005 24.1249H126.15C126.069 23.5804 125.856 23.1424 125.51 22.811C125.169 22.4748 124.722 22.3067 124.168 22.3067C123.699 22.3067 123.29 22.4346 122.939 22.6902C122.594 22.9412 122.324 23.3081 122.13 23.7911C121.935 24.274 121.838 24.8588 121.838 25.5454C121.838 26.2414 121.933 26.8332 122.123 27.3209C122.317 27.8086 122.589 28.1803 122.939 28.436C123.29 28.6917 123.699 28.8195 124.168 28.8195C124.514 28.8195 124.824 28.7485 125.098 28.6064C125.378 28.4644 125.607 28.2584 125.787 27.9885C125.972 27.7139 126.093 27.3848 126.15 27.0013H129.005C128.957 27.8347 128.73 28.5686 128.323 29.203C127.92 29.8328 127.364 30.3252 126.654 30.6803C125.944 31.0354 125.103 31.213 124.132 31.213ZM131.142 30.9999V20.0908H134.075V21.9942H134.189C134.387 21.3171 134.721 20.8058 135.19 20.4601C135.659 20.1097 136.199 19.9346 136.809 19.9346C136.961 19.9346 137.124 19.944 137.299 19.963C137.475 19.9819 137.629 20.0079 137.761 20.0411V22.7258C137.619 22.6831 137.423 22.6453 137.172 22.6121C136.921 22.579 136.691 22.5624 136.483 22.5624C136.038 22.5624 135.64 22.6595 135.289 22.8536C134.944 23.043 134.669 23.3081 134.466 23.649C134.267 23.99 134.167 24.3829 134.167 24.828V30.9999H131.142ZM139.525 30.9999V20.0908H142.551V30.9999H139.525ZM141.045 18.6846C140.595 18.6846 140.21 18.5354 139.888 18.2371C139.57 17.9341 139.412 17.5719 139.412 17.1505C139.412 16.7338 139.57 16.3763 139.888 16.078C140.21 15.775 140.595 15.6235 141.045 15.6235C141.495 15.6235 141.879 15.775 142.196 16.078C142.518 16.3763 142.679 16.7338 142.679 17.1505C142.679 17.5719 142.518 17.9341 142.196 18.2371C141.879 18.5354 141.495 18.6846 141.045 18.6846ZM145.231 30.9999V16.4544H148.257V21.9232H148.349C148.482 21.6296 148.674 21.3313 148.925 21.0283C149.18 20.7205 149.512 20.4649 149.919 20.2613C150.331 20.0529 150.842 19.9488 151.453 19.9488C152.248 19.9488 152.982 20.1571 153.655 20.5738C154.327 20.9857 154.864 21.6083 155.267 22.4417C155.669 23.2703 155.871 24.3096 155.871 25.5596C155.871 26.7764 155.674 27.8039 155.281 28.6419C154.893 29.4753 154.363 30.1074 153.69 30.5383C153.023 30.9644 152.274 31.1775 151.446 31.1775C150.859 31.1775 150.359 31.0804 149.947 30.8863C149.54 30.6921 149.206 30.4483 148.946 30.1547C148.685 29.8564 148.487 29.5558 148.349 29.2527H148.214V30.9999H145.231ZM148.193 25.5454C148.193 26.194 148.283 26.7598 148.463 27.2428C148.643 27.7258 148.903 28.1022 149.244 28.3721C149.585 28.6372 149.999 28.7698 150.487 28.7698C150.979 28.7698 151.396 28.6348 151.737 28.365C152.078 28.0903 152.336 27.7115 152.511 27.2286C152.691 26.7409 152.781 26.1798 152.781 25.5454C152.781 24.9156 152.694 24.3616 152.518 23.8834C152.343 23.4052 152.085 23.0311 151.744 22.7613C151.403 22.4914 150.984 22.3564 150.487 22.3564C149.995 22.3564 149.578 22.4866 149.237 22.7471C148.901 23.0075 148.643 23.3768 148.463 23.855C148.283 24.3332 148.193 24.8967 148.193 25.5454Z" fill="white"/>
<path d="M6 0.25H47.75V47.75H6C2.82436 47.75 0.25 45.1756 0.25 42V6C0.25 2.82436 2.82436 0.25 6 0.25Z" fill="white"/>
<path d="M6 0.25H47.75V47.75H6C2.82436 47.75 0.25 45.1756 0.25 42V6C0.25 2.82436 2.82436 0.25 6 0.25Z" stroke="white" stroke-width="0.5"/>
<path d="M20.2421 35.0502H9.03129C6.30738 35.0502 5.84985 34.1382 5.84985 31.4143V21.4718C6.30434 20.2597 8.8798 17.959 10.0918 16.7471L13.4247 13.594C14.4852 12.6851 15.2654 11.5344 16.9091 12.685L25.393 21.4718M20.2421 35.0502C23.7459 34.9862 23.2914 35.1377 20.2421 35.0502Z" stroke="#C6824B" stroke-width="2.12096" stroke-linecap="round" stroke-linejoin="round"/>
<path d="M8.8125 31.9244V30.6444H9.30251C9.39501 30.6444 9.47188 30.659 9.53314 30.6881C9.5948 30.7169 9.64085 30.7563 9.67126 30.8063C9.7021 30.8563 9.71751 30.9129 9.71751 30.9763C9.71751 31.0284 9.70751 31.0729 9.68751 31.11C9.66751 31.1467 9.64064 31.1765 9.60689 31.1994C9.57314 31.2223 9.53543 31.2388 9.49376 31.2488V31.2613C9.53918 31.2638 9.58272 31.2777 9.62439 31.3032C9.66647 31.3282 9.70085 31.3636 9.72751 31.4094C9.75418 31.4552 9.76751 31.5107 9.76751 31.5757C9.76751 31.6419 9.75147 31.7015 9.71939 31.7544C9.6873 31.8069 9.63897 31.8484 9.57439 31.8788C9.5098 31.9092 9.42855 31.9244 9.33063 31.9244H8.8125ZM9.04438 31.7307H9.29376C9.37792 31.7307 9.43855 31.7146 9.47563 31.6825C9.51314 31.65 9.53189 31.6084 9.53189 31.5575C9.53189 31.5196 9.52251 31.4854 9.50376 31.455C9.48501 31.4242 9.45834 31.4 9.42376 31.3825C9.38917 31.3646 9.34792 31.3557 9.30001 31.3557H9.04438V31.7307ZM9.04438 31.1888H9.27376C9.31376 31.1888 9.3498 31.1815 9.38188 31.1669C9.41397 31.1519 9.43918 31.1309 9.45751 31.1038C9.47626 31.0763 9.48563 31.0438 9.48563 31.0063C9.48563 30.9567 9.46813 30.9159 9.43313 30.8838C9.39855 30.8517 9.34709 30.8356 9.27876 30.8356H9.04438V31.1888Z" fill="#291B25"/>
<path d="M10.378 31.9432C10.2842 31.9432 10.203 31.9225 10.1342 31.8813C10.0655 31.84 10.0122 31.7823 9.97424 31.7082C9.93673 31.634 9.91798 31.5473 9.91798 31.4482C9.91798 31.349 9.93673 31.2621 9.97424 31.1875C10.0122 31.1129 10.0655 31.055 10.1342 31.0138C10.203 30.9725 10.2842 30.9519 10.378 30.9519C10.4717 30.9519 10.553 30.9725 10.6217 31.0138C10.6905 31.055 10.7436 31.1129 10.7811 31.1875C10.819 31.2621 10.838 31.349 10.838 31.4482C10.838 31.5473 10.819 31.634 10.7811 31.7082C10.7436 31.7823 10.6905 31.84 10.6217 31.8813C10.553 31.9225 10.4717 31.9432 10.378 31.9432ZM10.3792 31.7619C10.4301 31.7619 10.4726 31.748 10.5067 31.72C10.5409 31.6917 10.5663 31.6538 10.583 31.6063C10.6001 31.5588 10.6086 31.5059 10.6086 31.4475C10.6086 31.3888 10.6001 31.3357 10.583 31.2882C10.5663 31.2402 10.5409 31.2021 10.5067 31.1738C10.4726 31.1454 10.4301 31.1313 10.3792 31.1313C10.3272 31.1313 10.2838 31.1454 10.2492 31.1738C10.2151 31.2021 10.1894 31.2402 10.1724 31.2882C10.1557 31.3357 10.1474 31.3888 10.1474 31.4475C10.1474 31.5059 10.1557 31.5588 10.1724 31.6063C10.1894 31.6538 10.2151 31.6917 10.2492 31.72C10.2838 31.748 10.3272 31.7619 10.3792 31.7619Z" fill="#291B25"/>
<path d="M11.4488 31.9432C11.355 31.9432 11.2738 31.9225 11.205 31.8813C11.1363 31.84 11.0829 31.7823 11.045 31.7082C11.0075 31.634 10.9888 31.5473 10.9888 31.4482C10.9888 31.349 11.0075 31.2621 11.045 31.1875C11.0829 31.1129 11.1363 31.055 11.205 31.0138C11.2738 30.9725 11.355 30.9519 11.4488 30.9519C11.5425 30.9519 11.6238 30.9725 11.6925 31.0138C11.7613 31.055 11.8144 31.1129 11.8519 31.1875C11.8898 31.2621 11.9088 31.349 11.9088 31.4482C11.9088 31.5473 11.8898 31.634 11.8519 31.7082C11.8144 31.7823 11.7613 31.84 11.6925 31.8813C11.6238 31.9225 11.5425 31.9432 11.4488 31.9432ZM11.45 31.7619C11.5009 31.7619 11.5434 31.748 11.5775 31.72C11.6117 31.6917 11.6371 31.6538 11.6538 31.6063C11.6709 31.5588 11.6794 31.5059 11.6794 31.4475C11.6794 31.3888 11.6709 31.3357 11.6538 31.2882C11.6371 31.2402 11.6117 31.2021 11.5775 31.1738C11.5434 31.1454 11.5009 31.1313 11.45 31.1313C11.398 31.1313 11.3546 31.1454 11.32 31.1738C11.2859 31.2021 11.2602 31.2402 11.2432 31.2882C11.2265 31.3357 11.2182 31.3888 11.2182 31.4475C11.2182 31.5059 11.2265 31.5588 11.2432 31.6063C11.2602 31.6538 11.2859 31.6917 11.32 31.72C11.3546 31.748 11.398 31.7619 11.45 31.7619Z" fill="#291B25"/>
<path d="M12.3071 31.6232L12.3065 31.35H12.3427L12.6877 30.9644H12.9521L12.5277 31.4369H12.4808L12.3071 31.6232ZM12.1008 31.9244V30.6444H12.3271V31.9244H12.1008ZM12.7033 31.9244L12.3908 31.4875L12.5433 31.3282L12.974 31.9244H12.7033Z" fill="#291B25"/>
<path d="M13.4619 30.6444H13.7238L14.037 31.2107H14.0495L14.3626 30.6444H14.6245L14.1588 31.4469V31.9244H13.9276V31.4469L13.4619 30.6444Z" fill="#291B25"/>
<path d="M15.0187 31.9432C14.9249 31.9432 14.8437 31.9225 14.7749 31.8813C14.7062 31.84 14.6528 31.7823 14.6149 31.7082C14.5774 31.634 14.5587 31.5473 14.5587 31.4482C14.5587 31.349 14.5774 31.2621 14.6149 31.1875C14.6528 31.1129 14.7062 31.055 14.7749 31.0138C14.8437 30.9725 14.9249 30.9519 15.0187 30.9519C15.1124 30.9519 15.1937 30.9725 15.2624 31.0138C15.3312 31.055 15.3843 31.1129 15.4218 31.1875C15.4597 31.2621 15.4787 31.349 15.4787 31.4482C15.4787 31.5473 15.4597 31.634 15.4218 31.7082C15.3843 31.7823 15.3312 31.84 15.2624 31.8813C15.1937 31.9225 15.1124 31.9432 15.0187 31.9432ZM15.0199 31.7619C15.0708 31.7619 15.1133 31.748 15.1474 31.72C15.1816 31.6917 15.207 31.6538 15.2237 31.6063C15.2408 31.5588 15.2493 31.5059 15.2493 31.4475C15.2493 31.3888 15.2408 31.3357 15.2237 31.2882C15.207 31.2402 15.1816 31.2021 15.1474 31.1738C15.1133 31.1454 15.0708 31.1313 15.0199 31.1313C14.9678 31.1313 14.9245 31.1454 14.8899 31.1738C14.8558 31.2021 14.8301 31.2402 14.8131 31.2882C14.7964 31.3357 14.7881 31.3888 14.7881 31.4475C14.7881 31.5059 14.7964 31.5588 14.8131 31.6063C14.8301 31.6538 14.8558 31.6917 14.8899 31.72C14.9245 31.748 14.9678 31.7619 15.0199 31.7619Z" fill="#291B25"/>
<path d="M16.2826 31.5207V30.9644H16.5089V31.9244H16.2895V31.7538H16.2795C16.2578 31.8075 16.2222 31.8515 16.1726 31.8857C16.1234 31.9198 16.0628 31.9369 15.9907 31.9369C15.9278 31.9369 15.8722 31.923 15.8239 31.895C15.7759 31.8667 15.7384 31.8257 15.7113 31.7719C15.6843 31.7177 15.6707 31.6523 15.6707 31.5757V30.9644H15.897V31.5407C15.897 31.6015 15.9136 31.6498 15.947 31.6857C15.9803 31.7215 16.0241 31.7394 16.0782 31.7394C16.1116 31.7394 16.1439 31.7313 16.1751 31.715C16.2064 31.6988 16.232 31.6746 16.252 31.6425C16.2724 31.61 16.2826 31.5694 16.2826 31.5207Z" fill="#291B25"/>
<path d="M16.7415 31.9244V30.9644H16.9609V31.1244H16.9709C16.9884 31.069 17.0184 31.0263 17.0609 30.9963C17.1038 30.9659 17.1528 30.9506 17.2078 30.9506C17.2203 30.9506 17.2342 30.9513 17.2497 30.9525C17.2655 30.9534 17.2786 30.9548 17.289 30.9569V31.165C17.2794 31.1617 17.2642 31.1588 17.2434 31.1563C17.223 31.1534 17.2032 31.1519 17.184 31.1519C17.1428 31.1519 17.1057 31.1609 17.0728 31.1788C17.0403 31.1963 17.0146 31.2207 16.9959 31.2519C16.9771 31.2832 16.9678 31.3192 16.9678 31.36V31.9244H16.7415Z" fill="#291B25"/>
<path d="M17.8859 31.9244V30.6444H18.3659C18.4643 30.6444 18.5468 30.6627 18.6134 30.6994C18.6805 30.7361 18.7311 30.7865 18.7653 30.8506C18.7999 30.9144 18.8172 30.9869 18.8172 31.0682C18.8172 31.1502 18.7999 31.2232 18.7653 31.2869C18.7307 31.3507 18.6797 31.4009 18.6122 31.4375C18.5447 31.4738 18.4615 31.4919 18.3628 31.4919H18.0447V31.3013H18.3315C18.389 31.3013 18.4361 31.2913 18.4728 31.2713C18.5095 31.2513 18.5365 31.2238 18.554 31.1888C18.572 31.1538 18.5809 31.1136 18.5809 31.0682C18.5809 31.0227 18.572 30.9827 18.554 30.9481C18.5365 30.9136 18.5093 30.8867 18.4722 30.8675C18.4355 30.8479 18.3882 30.8381 18.3303 30.8381H18.1178V31.9244H17.8859Z" fill="#291B25"/>
<path d="M19.4198 31.9432C19.3236 31.9432 19.2405 31.9232 19.1705 31.8832C19.1009 31.8427 19.0473 31.7857 19.0098 31.7119C18.9723 31.6377 18.9536 31.5505 18.9536 31.45C18.9536 31.3513 18.9723 31.2646 19.0098 31.19C19.0478 31.115 19.1007 31.0567 19.1686 31.015C19.2365 30.9729 19.3163 30.9519 19.408 30.9519C19.4671 30.9519 19.523 30.9615 19.5755 30.9807C19.6284 30.9994 19.6751 31.0286 19.7155 31.0682C19.7563 31.1077 19.7884 31.1582 19.8117 31.2194C19.8351 31.2802 19.8467 31.3527 19.8467 31.4369V31.5063H19.0598V31.3538H19.6298C19.6294 31.3104 19.6201 31.2719 19.6017 31.2382C19.5834 31.204 19.5578 31.1771 19.5248 31.1575C19.4923 31.1379 19.4544 31.1282 19.4111 31.1282C19.3648 31.1282 19.3242 31.1394 19.2892 31.1619C19.2542 31.184 19.2269 31.2132 19.2073 31.2494C19.1882 31.2852 19.1784 31.3246 19.178 31.3675V31.5007C19.178 31.5565 19.1882 31.6044 19.2086 31.6444C19.229 31.684 19.2575 31.7144 19.2942 31.7357C19.3309 31.7565 19.3738 31.7669 19.423 31.7669C19.4559 31.7669 19.4857 31.7623 19.5123 31.7532C19.539 31.7436 19.5621 31.7296 19.5817 31.7113C19.6013 31.693 19.6161 31.6702 19.6261 31.6432L19.8373 31.6669C19.824 31.7227 19.7986 31.7715 19.7611 31.8132C19.724 31.8544 19.6765 31.8865 19.6186 31.9094C19.5607 31.9319 19.4944 31.9432 19.4198 31.9432Z" fill="#291B25"/>
<path d="M20.0381 31.9244V30.9644H20.2575V31.1244H20.2675C20.285 31.069 20.315 31.0263 20.3575 30.9963C20.4004 30.9659 20.4494 30.9506 20.5044 30.9506C20.5169 30.9506 20.5308 30.9513 20.5463 30.9525C20.5621 30.9534 20.5752 30.9548 20.5856 30.9569V31.165C20.5761 31.1617 20.5608 31.1588 20.54 31.1563C20.5196 31.1534 20.4998 31.1519 20.4806 31.1519C20.4394 31.1519 20.4023 31.1609 20.3694 31.1788C20.3369 31.1963 20.3113 31.2207 20.2925 31.2519C20.2738 31.2832 20.2644 31.3192 20.2644 31.36V31.9244H20.0381Z" fill="#291B25"/>
<path d="M21.2738 30.9644V31.1394H20.7063V30.9644H21.2738ZM20.8481 31.9244V30.8738C20.8481 30.8092 20.8615 30.7554 20.8881 30.7125C20.9152 30.6696 20.9515 30.6375 20.9969 30.6163C21.0423 30.595 21.0927 30.5844 21.1481 30.5844C21.1873 30.5844 21.2221 30.5875 21.2525 30.5938C21.2829 30.6 21.3054 30.6056 21.32 30.6106L21.275 30.7856C21.2654 30.7827 21.2534 30.7798 21.2388 30.7769C21.2242 30.7736 21.2079 30.7719 21.19 30.7719C21.1479 30.7719 21.1181 30.7821 21.1006 30.8025C21.0836 30.8225 21.075 30.8513 21.075 30.8888V31.9244H20.8481Z" fill="#291B25"/>
<path d="M21.8399 31.9432C21.7436 31.9432 21.6605 31.9232 21.5905 31.8832C21.5209 31.8427 21.4674 31.7857 21.4299 31.7119C21.3924 31.6377 21.3736 31.5505 21.3736 31.45C21.3736 31.3513 21.3924 31.2646 21.4299 31.19C21.4678 31.115 21.5207 31.0567 21.5886 31.015C21.6565 30.9729 21.7363 30.9519 21.828 30.9519C21.8872 30.9519 21.943 30.9615 21.9955 30.9807C22.0484 30.9994 22.0951 31.0286 22.1355 31.0682C22.1763 31.1077 22.2084 31.1582 22.2318 31.2194C22.2551 31.2802 22.2668 31.3527 22.2668 31.4369V31.5063H21.4799V31.3538H22.0499C22.0495 31.3104 22.0401 31.2719 22.0218 31.2382C22.0034 31.204 21.9778 31.1771 21.9449 31.1575C21.9124 31.1379 21.8745 31.1282 21.8311 31.1282C21.7849 31.1282 21.7442 31.1394 21.7092 31.1619C21.6742 31.184 21.647 31.2132 21.6274 31.2494C21.6082 31.2852 21.5984 31.3246 21.598 31.3675V31.5007C21.598 31.5565 21.6082 31.6044 21.6286 31.6444C21.649 31.684 21.6776 31.7144 21.7142 31.7357C21.7509 31.7565 21.7938 31.7669 21.843 31.7669C21.8759 31.7669 21.9057 31.7623 21.9324 31.7532C21.959 31.7436 21.9822 31.7296 22.0018 31.7113C22.0213 31.693 22.0361 31.6702 22.0461 31.6432L22.2574 31.6669C22.244 31.7227 22.2186 31.7715 22.1811 31.8132C22.144 31.8544 22.0965 31.8865 22.0386 31.9094C21.9807 31.9319 21.9145 31.9432 21.8399 31.9432Z" fill="#291B25"/>
<path d="M22.8769 31.9432C22.7811 31.9432 22.6988 31.9221 22.63 31.88C22.5617 31.838 22.509 31.7798 22.4719 31.7057C22.4352 31.6311 22.4169 31.5452 22.4169 31.4482C22.4169 31.3507 22.4357 31.2646 22.4732 31.19C22.5107 31.115 22.5636 31.0567 22.6319 31.015C22.7007 30.9729 22.7819 30.9519 22.8757 30.9519C22.9536 30.9519 23.0225 30.9663 23.0825 30.995C23.143 31.0234 23.1911 31.0636 23.2269 31.1157C23.2628 31.1673 23.2832 31.2277 23.2882 31.2969H23.0719C23.0632 31.2507 23.0423 31.2121 23.0094 31.1813C22.9769 31.15 22.9334 31.1344 22.8788 31.1344C22.8325 31.1344 22.7919 31.1469 22.7569 31.1719C22.7219 31.1965 22.6946 31.2319 22.675 31.2782C22.6559 31.3244 22.6463 31.3798 22.6463 31.4444C22.6463 31.5098 22.6559 31.5661 22.675 31.6132C22.6942 31.6598 22.7211 31.6959 22.7557 31.7213C22.7907 31.7463 22.8317 31.7588 22.8788 31.7588C22.9121 31.7588 22.9419 31.7525 22.9682 31.74C22.9948 31.7271 23.0171 31.7086 23.035 31.6844C23.053 31.6602 23.0653 31.6309 23.0719 31.5963H23.2882C23.2828 31.6642 23.2628 31.7244 23.2282 31.7769C23.1936 31.829 23.1465 31.8698 23.0869 31.8994C23.0273 31.9286 22.9573 31.9432 22.8769 31.9432Z" fill="#291B25"/>
<path d="M23.9533 30.9644V31.1394H23.4015V30.9644H23.9533ZM23.5377 30.7344H23.764V31.6357C23.764 31.6661 23.7685 31.6894 23.7777 31.7057C23.7873 31.7215 23.7998 31.7323 23.8152 31.7382C23.8306 31.744 23.8477 31.7469 23.8665 31.7469C23.8806 31.7469 23.8936 31.7459 23.9052 31.7438C23.9173 31.7417 23.9265 31.7398 23.9327 31.7382L23.9708 31.915C23.9588 31.9192 23.9415 31.9238 23.919 31.9288C23.8969 31.9338 23.8698 31.9367 23.8377 31.9375C23.781 31.9392 23.73 31.9307 23.6846 31.9119C23.6392 31.8927 23.6031 31.8632 23.5765 31.8232C23.5502 31.7832 23.5373 31.7332 23.5377 31.6732V30.7344Z" fill="#291B25"/>
<path d="M25.2848 30.9963C25.2789 30.9417 25.2544 30.8992 25.211 30.8688C25.1681 30.8384 25.1123 30.8231 25.0435 30.8231C24.9952 30.8231 24.9537 30.8304 24.9191 30.845C24.8846 30.8596 24.8581 30.8794 24.8398 30.9044C24.8214 30.9294 24.8121 30.9579 24.8116 30.99C24.8116 31.0167 24.8177 31.0398 24.8298 31.0594C24.8423 31.079 24.8591 31.0957 24.8804 31.1094C24.9016 31.1227 24.9252 31.134 24.951 31.1432C24.9768 31.1523 25.0029 31.16 25.0291 31.1663L25.1491 31.1963C25.1975 31.2075 25.2439 31.2227 25.2885 31.2419C25.3335 31.2611 25.3737 31.2852 25.4091 31.3144C25.445 31.3436 25.4733 31.3788 25.4941 31.42C25.515 31.4613 25.5254 31.5096 25.5254 31.565C25.5254 31.64 25.5062 31.7061 25.4679 31.7632C25.4296 31.8198 25.3741 31.8642 25.3016 31.8963C25.2296 31.928 25.1423 31.9438 25.0398 31.9438C24.9402 31.9438 24.8537 31.9284 24.7804 31.8975C24.7075 31.8667 24.6504 31.8217 24.6091 31.7625C24.5683 31.7034 24.5462 31.6313 24.5429 31.5463H24.771C24.7743 31.5909 24.7881 31.628 24.8123 31.6575C24.8364 31.6871 24.8679 31.7092 24.9066 31.7238C24.9458 31.7384 24.9896 31.7457 25.0379 31.7457C25.0883 31.7457 25.1325 31.7382 25.1704 31.7232C25.2087 31.7077 25.2387 31.6865 25.2604 31.6594C25.2821 31.6319 25.2931 31.5998 25.2935 31.5632C25.2931 31.5298 25.2833 31.5023 25.2641 31.4807C25.245 31.4586 25.2181 31.4402 25.1835 31.4257C25.1494 31.4107 25.1093 31.3973 25.0635 31.3857L24.9179 31.3482C24.8125 31.3211 24.7291 31.28 24.6679 31.225C24.6071 31.1696 24.5766 31.0961 24.5766 31.0044C24.5766 30.929 24.5971 30.8629 24.6379 30.8063C24.6791 30.7496 24.7352 30.7056 24.806 30.6744C24.8768 30.6427 24.9571 30.6269 25.0466 30.6269C25.1375 30.6269 25.2171 30.6427 25.2854 30.6744C25.3541 30.7056 25.4081 30.7492 25.4473 30.805C25.4864 30.8604 25.5066 30.9242 25.5079 30.9963H25.2848Z" fill="#291B25"/>
<path d="M26.2015 30.9644V31.1394H25.6496V30.9644H26.2015ZM25.7859 30.7344H26.0121V31.6357C26.0121 31.6661 26.0167 31.6894 26.0259 31.7057C26.0355 31.7215 26.048 31.7323 26.0634 31.7382C26.0788 31.744 26.0959 31.7469 26.1146 31.7469C26.1288 31.7469 26.1417 31.7459 26.1534 31.7438C26.1655 31.7417 26.1746 31.7398 26.1809 31.7382L26.219 31.915C26.2069 31.9192 26.1896 31.9238 26.1671 31.9288C26.145 31.9338 26.118 31.9367 26.0859 31.9375C26.0292 31.9392 25.9782 31.9307 25.9327 31.9119C25.8873 31.8927 25.8513 31.8632 25.8246 31.8232C25.7984 31.7832 25.7855 31.7332 25.7859 31.6732V30.7344Z" fill="#291B25"/>
<path d="M26.667 31.9438C26.6061 31.9438 26.5513 31.933 26.5026 31.9113C26.4543 31.8892 26.4159 31.8567 26.3876 31.8138C26.3597 31.7709 26.3457 31.718 26.3457 31.655C26.3457 31.6009 26.3557 31.5561 26.3757 31.5207C26.3957 31.4852 26.423 31.4569 26.4576 31.4357C26.4922 31.4144 26.5311 31.3984 26.5745 31.3875C26.6182 31.3763 26.6634 31.3682 26.7101 31.3632C26.7664 31.3573 26.812 31.3521 26.847 31.3475C26.882 31.3425 26.9074 31.335 26.9232 31.325C26.9395 31.3146 26.9476 31.2986 26.9476 31.2769V31.2732C26.9476 31.2261 26.9336 31.1896 26.9057 31.1638C26.8778 31.1379 26.8376 31.125 26.7851 31.125C26.7297 31.125 26.6857 31.1371 26.6532 31.1613C26.6211 31.1854 26.5995 31.214 26.5882 31.2469L26.377 31.2169C26.3936 31.1586 26.4211 31.1098 26.4595 31.0707C26.4978 31.0311 26.5447 31.0015 26.6001 30.9819C26.6555 30.9619 26.7168 30.9519 26.7839 30.9519C26.8301 30.9519 26.8761 30.9573 26.922 30.9682C26.9678 30.979 27.0097 30.9969 27.0476 31.0219C27.0855 31.0465 27.1159 31.08 27.1389 31.1225C27.1622 31.165 27.1739 31.2182 27.1739 31.2819V31.9244H26.9564V31.7925H26.9489C26.9351 31.8192 26.9157 31.8442 26.8907 31.8675C26.8661 31.8905 26.8351 31.909 26.7976 31.9232C26.7605 31.9369 26.717 31.9438 26.667 31.9438ZM26.7257 31.7775C26.7711 31.7775 26.8105 31.7686 26.8439 31.7507C26.8772 31.7323 26.9028 31.7082 26.9207 31.6782C26.9391 31.6482 26.9482 31.6155 26.9482 31.58V31.4669C26.9411 31.4727 26.9291 31.4782 26.912 31.4832C26.8953 31.4882 26.8766 31.4925 26.8557 31.4963C26.8349 31.5 26.8143 31.5034 26.7939 31.5063C26.7734 31.5092 26.7557 31.5117 26.7407 31.5138C26.707 31.5184 26.6768 31.5259 26.6501 31.5363C26.6234 31.5467 26.6024 31.5613 26.587 31.58C26.5716 31.5984 26.5638 31.6221 26.5638 31.6513C26.5638 31.693 26.5791 31.7244 26.6095 31.7457C26.6399 31.7669 26.6786 31.7775 26.7257 31.7775Z" fill="#291B25"/>
<path d="M27.5076 32.2844C27.4768 32.2844 27.4482 32.2819 27.422 32.2769C27.3962 32.2723 27.3755 32.2669 27.3601 32.2607L27.4126 32.0844C27.4455 32.094 27.4749 32.0986 27.5007 32.0982C27.5266 32.0977 27.5493 32.0896 27.5689 32.0738C27.5889 32.0584 27.6057 32.0325 27.6195 31.9963L27.6389 31.9444L27.2907 30.9644H27.5307L27.752 31.6894H27.762L27.9839 30.9644H28.2245L27.8401 32.0407C27.8222 32.0915 27.7985 32.135 27.7689 32.1713C27.7393 32.208 27.703 32.2359 27.6601 32.255C27.6176 32.2746 27.5668 32.2844 27.5076 32.2844Z" fill="#291B25"/>
<path d="M28.5865 31.7494L28.5784 31.8182C28.5726 31.8707 28.5622 31.924 28.5472 31.9782C28.5326 32.0327 28.5172 32.083 28.5009 32.1288C28.4847 32.1746 28.4715 32.2107 28.4615 32.2369H28.309C28.3149 32.2115 28.3228 32.1769 28.3328 32.1332C28.3432 32.0894 28.3532 32.0402 28.3628 31.9857C28.3724 31.9311 28.3788 31.8757 28.3822 31.8194L28.3865 31.7494H28.5865Z" fill="#291B25"/>
<path d="M29.4114 31.9244H29.1639L29.6145 30.6444H29.9008L30.352 31.9244H30.1045L29.7626 30.9069H29.7526L29.4114 31.9244ZM29.4195 31.4225H30.0945V31.6088H29.4195V31.4225Z" fill="#291B25"/>
<path d="M30.7369 31.3619V31.9244H30.5106V30.9644H30.7269V31.1275H30.7381C30.7602 31.0738 30.7954 31.0311 30.8438 30.9994C30.8925 30.9677 30.9527 30.9519 31.0244 30.9519C31.0906 30.9519 31.1483 30.9661 31.1975 30.9944C31.2471 31.0227 31.2854 31.0638 31.3125 31.1175C31.34 31.1713 31.3536 31.2365 31.3531 31.3132V31.9244H31.1269V31.3482C31.1269 31.284 31.1102 31.2338 31.0769 31.1975C31.044 31.1613 30.9983 31.1432 30.94 31.1432C30.9004 31.1432 30.8652 31.1519 30.8344 31.1694C30.804 31.1865 30.78 31.2113 30.7625 31.2438C30.7454 31.2763 30.7369 31.3157 30.7369 31.3619Z" fill="#291B25"/>
<path d="M31.6894 32.2844C31.6586 32.2844 31.63 32.2819 31.6038 32.2769C31.5779 32.2723 31.5573 32.2669 31.5419 32.2607L31.5944 32.0844C31.6273 32.094 31.6567 32.0986 31.6825 32.0982C31.7083 32.0977 31.7311 32.0896 31.7506 32.0738C31.7706 32.0584 31.7875 32.0325 31.8013 31.9963L31.8206 31.9444L31.4725 30.9644H31.7125L31.9338 31.6894H31.9438L32.1656 30.9644H32.4063L32.0219 32.0407C32.004 32.0915 31.9802 32.135 31.9506 32.1713C31.9211 32.208 31.8848 32.2359 31.8419 32.255C31.7994 32.2746 31.7486 32.2844 31.6894 32.2844Z" fill="#291B25"/>
<path d="M33.0422 30.9644V31.1394H32.4903V30.9644H33.0422ZM32.6266 30.7344H32.8528V31.6357C32.8528 31.6661 32.8574 31.6894 32.8666 31.7057C32.8762 31.7215 32.8887 31.7323 32.9041 31.7382C32.9195 31.744 32.9366 31.7469 32.9553 31.7469C32.9695 31.7469 32.9824 31.7459 32.9941 31.7438C33.0062 31.7417 33.0154 31.7398 33.0216 31.7382L33.0597 31.915C33.0476 31.9192 33.0303 31.9238 33.0078 31.9288C32.9858 31.9338 32.9587 31.9367 32.9266 31.9375C32.8699 31.9392 32.8189 31.9307 32.7735 31.9119C32.7281 31.8927 32.692 31.8632 32.6653 31.8232C32.6391 31.7832 32.6262 31.7332 32.6266 31.6732V30.7344Z" fill="#291B25"/>
<path d="M33.2314 31.9244V30.9644H33.4577V31.9244H33.2314ZM33.3452 30.8281C33.3094 30.8281 33.2785 30.8163 33.2527 30.7925C33.2269 30.7684 33.2139 30.7394 33.2139 30.7056C33.2139 30.6715 33.2269 30.6425 33.2527 30.6188C33.2785 30.5946 33.3094 30.5825 33.3452 30.5825C33.3814 30.5825 33.4123 30.5946 33.4377 30.6188C33.4635 30.6425 33.4764 30.6715 33.4764 30.7056C33.4764 30.7394 33.4635 30.7684 33.4377 30.7925C33.4123 30.8163 33.3814 30.8281 33.3452 30.8281Z" fill="#291B25"/>
<path d="M33.6904 31.9244V30.9644H33.9066V31.1275H33.9179C33.9379 31.0725 33.971 31.0296 34.0172 30.9988C34.0635 30.9675 34.1187 30.9519 34.1829 30.9519C34.2479 30.9519 34.3027 30.9677 34.3472 30.9994C34.3922 31.0307 34.4239 31.0734 34.4422 31.1275H34.4522C34.4735 31.0742 34.5093 31.0317 34.5597 31C34.6106 30.9679 34.6708 30.9519 34.7404 30.9519C34.8287 30.9519 34.9008 30.9798 34.9566 31.0357C35.0125 31.0915 35.0404 31.1729 35.0404 31.28V31.9244H34.8135V31.315C34.8135 31.2554 34.7977 31.2119 34.766 31.1844C34.7343 31.1565 34.6956 31.1425 34.6497 31.1425C34.5952 31.1425 34.5525 31.1596 34.5216 31.1938C34.4912 31.2275 34.476 31.2715 34.476 31.3257V31.9244H34.2541V31.3057C34.2541 31.2561 34.2391 31.2165 34.2091 31.1869C34.1795 31.1573 34.1408 31.1425 34.0929 31.1425C34.0604 31.1425 34.0308 31.1509 34.0041 31.1675C33.9774 31.1838 33.9562 31.2069 33.9404 31.2369C33.9245 31.2665 33.9166 31.3011 33.9166 31.3407V31.9244H33.6904Z" fill="#291B25"/>
<path d="M35.6949 31.9432C35.5987 31.9432 35.5155 31.9232 35.4455 31.8832C35.376 31.8427 35.3224 31.7857 35.2849 31.7119C35.2474 31.6377 35.2287 31.5505 35.2287 31.45C35.2287 31.3513 35.2474 31.2646 35.2849 31.19C35.3228 31.115 35.3757 31.0567 35.4437 31.015C35.5116 30.9729 35.5914 30.9519 35.683 30.9519C35.7422 30.9519 35.798 30.9615 35.8505 30.9807C35.9035 30.9994 35.9501 31.0286 35.9905 31.0682C36.0314 31.1077 36.0635 31.1582 36.0868 31.2194C36.1101 31.2802 36.1218 31.3527 36.1218 31.4369V31.5063H35.3349V31.3538H35.9049C35.9045 31.3104 35.8951 31.2719 35.8768 31.2382C35.8585 31.204 35.8328 31.1771 35.7999 31.1575C35.7674 31.1379 35.7295 31.1282 35.6862 31.1282C35.6399 31.1282 35.5993 31.1394 35.5643 31.1619C35.5293 31.184 35.502 31.2132 35.4824 31.2494C35.4632 31.2852 35.4535 31.3246 35.453 31.3675V31.5007C35.453 31.5565 35.4632 31.6044 35.4837 31.6444C35.5041 31.684 35.5326 31.7144 35.5693 31.7357C35.606 31.7565 35.6489 31.7669 35.698 31.7669C35.731 31.7669 35.7608 31.7623 35.7874 31.7532C35.8141 31.7436 35.8372 31.7296 35.8568 31.7113C35.8764 31.693 35.8912 31.6702 35.9012 31.6432L36.1124 31.6669C36.0991 31.7227 36.0737 31.7715 36.0362 31.8132C35.9991 31.8544 35.9516 31.8865 35.8937 31.9094C35.8358 31.9319 35.7695 31.9432 35.6949 31.9432Z" fill="#291B25"/>
<path d="M36.5788 31.7494L36.5707 31.8182C36.5649 31.8707 36.5545 31.924 36.5395 31.9782C36.5249 32.0327 36.5095 32.083 36.4932 32.1288C36.477 32.1746 36.4638 32.2107 36.4538 32.2369H36.3013C36.3072 32.2115 36.3151 32.1769 36.3251 32.1332C36.3355 32.0894 36.3455 32.0402 36.3551 31.9857C36.3647 31.9311 36.3711 31.8757 36.3745 31.8194L36.3788 31.7494H36.5788Z" fill="#291B25"/>
<path d="M37.4037 31.9244H37.1562L37.6068 30.6444H37.8931L38.3443 31.9244H38.0968L37.7549 30.9069H37.7449L37.4037 31.9244ZM37.4118 31.4225H38.0868V31.6088H37.4118V31.4225Z" fill="#291B25"/>
<path d="M38.7292 31.3619V31.9244H38.5029V30.9644H38.7192V31.1275H38.7304C38.7525 31.0738 38.7877 31.0311 38.8361 30.9994C38.8848 30.9677 38.945 30.9519 39.0167 30.9519C39.0829 30.9519 39.1406 30.9661 39.1898 30.9944C39.2394 31.0227 39.2777 31.0638 39.3048 31.1175C39.3323 31.1713 39.3459 31.2365 39.3454 31.3132V31.9244H39.1192V31.3482C39.1192 31.284 39.1025 31.2338 39.0692 31.1975C39.0363 31.1613 38.9906 31.1432 38.9323 31.1432C38.8927 31.1432 38.8575 31.1519 38.8267 31.1694C38.7963 31.1865 38.7723 31.2113 38.7548 31.2438C38.7377 31.2763 38.7292 31.3157 38.7292 31.3619Z" fill="#291B25"/>
<path d="M39.6817 32.2844C39.6509 32.2844 39.6223 32.2819 39.5961 32.2769C39.5702 32.2723 39.5496 32.2669 39.5342 32.2607L39.5867 32.0844C39.6196 32.094 39.649 32.0986 39.6748 32.0982C39.7007 32.0977 39.7234 32.0896 39.7429 32.0738C39.7629 32.0584 39.7798 32.0325 39.7936 31.9963L39.8129 31.9444L39.4648 30.9644H39.7048L39.9261 31.6894H39.9361L40.158 30.9644H40.3986L40.0142 32.0407C39.9963 32.0915 39.9725 32.135 39.943 32.1713C39.9134 32.208 39.8771 32.2359 39.8342 32.255C39.7917 32.2746 39.7409 32.2844 39.6817 32.2844Z" fill="#291B25"/>
<path d="M40.7533 31.9244L40.482 30.9644H40.7126L40.8814 31.6394H40.8901L41.0627 30.9644H41.2908L41.4633 31.6357H41.4727L41.6389 30.9644H41.8702L41.5983 31.9244H41.3627L41.1827 31.2757H41.1695L40.9895 31.9244H40.7533Z" fill="#291B25"/>
<path d="M42.2544 31.3619V31.9244H42.0281V30.6444H42.2494V31.1275H42.2606C42.2831 31.0734 42.3179 31.0307 42.365 30.9994C42.4125 30.9677 42.4729 30.9519 42.5463 30.9519C42.6129 30.9519 42.6711 30.9659 42.7206 30.9938C42.7702 31.0217 42.8086 31.0625 42.8356 31.1163C42.8631 31.17 42.8769 31.2357 42.8769 31.3132V31.9244H42.6506V31.3482C42.6506 31.2836 42.634 31.2334 42.6006 31.1975C42.5677 31.1613 42.5215 31.1432 42.4619 31.1432C42.4219 31.1432 42.3861 31.1519 42.3544 31.1694C42.3231 31.1865 42.2986 31.2113 42.2806 31.2438C42.2631 31.2763 42.2544 31.3157 42.2544 31.3619Z" fill="#291B25"/>
<path d="M43.5325 31.9432C43.4363 31.9432 43.3532 31.9232 43.2832 31.8832C43.2136 31.8427 43.16 31.7857 43.1225 31.7119C43.085 31.6377 43.0663 31.5505 43.0663 31.45C43.0663 31.3513 43.085 31.2646 43.1225 31.19C43.1604 31.115 43.2134 31.0567 43.2813 31.015C43.3492 30.9729 43.429 30.9519 43.5207 30.9519C43.5798 30.9519 43.6357 30.9615 43.6882 30.9807C43.7411 30.9994 43.7877 31.0286 43.8282 31.0682C43.869 31.1077 43.9011 31.1582 43.9244 31.2194C43.9477 31.2802 43.9594 31.3527 43.9594 31.4369V31.5063H43.1725V31.3538H43.7425C43.7421 31.3104 43.7327 31.2719 43.7144 31.2382C43.6961 31.204 43.6705 31.1771 43.6375 31.1575C43.605 31.1379 43.5671 31.1282 43.5238 31.1282C43.4775 31.1282 43.4369 31.1394 43.4019 31.1619C43.3669 31.184 43.3396 31.2132 43.32 31.2494C43.3009 31.2852 43.2911 31.3246 43.2907 31.3675V31.5007C43.2907 31.5565 43.3009 31.6044 43.3213 31.6444C43.3417 31.684 43.3702 31.7144 43.4069 31.7357C43.4436 31.7565 43.4865 31.7669 43.5357 31.7669C43.5686 31.7669 43.5984 31.7623 43.625 31.7532C43.6517 31.7436 43.6748 31.7296 43.6944 31.7113C43.714 31.693 43.7288 31.6702 43.7388 31.6432L43.95 31.6669C43.9367 31.7227 43.9113 31.7715 43.8738 31.8132C43.8367 31.8544 43.7892 31.8865 43.7313 31.9094C43.6734 31.9319 43.6071 31.9432 43.5325 31.9432Z" fill="#291B25"/>
<path d="M44.1508 31.9244V30.9644H44.3702V31.1244H44.3802C44.3977 31.069 44.4277 31.0263 44.4702 30.9963C44.5131 30.9659 44.5621 30.9506 44.6171 30.9506C44.6296 30.9506 44.6435 30.9513 44.659 30.9525C44.6748 30.9534 44.6879 30.9548 44.6983 30.9569V31.165C44.6887 31.1617 44.6735 31.1588 44.6527 31.1563C44.6323 31.1534 44.6125 31.1519 44.5933 31.1519C44.5521 31.1519 44.515 31.1609 44.4821 31.1788C44.4496 31.1963 44.4239 31.2207 44.4052 31.2519C44.3864 31.2832 44.3771 31.3192 44.3771 31.36V31.9244H44.1508Z" fill="#291B25"/>
<path d="M45.2341 31.9432C45.1379 31.9432 45.0547 31.9232 44.9847 31.8832C44.9152 31.8427 44.8616 31.7857 44.8241 31.7119C44.7866 31.6377 44.7679 31.5505 44.7679 31.45C44.7679 31.3513 44.7866 31.2646 44.8241 31.19C44.862 31.115 44.9149 31.0567 44.9829 31.015C45.0508 30.9729 45.1306 30.9519 45.2222 30.9519C45.2814 30.9519 45.3372 30.9615 45.3897 30.9807C45.4427 30.9994 45.4893 31.0286 45.5297 31.0682C45.5706 31.1077 45.6027 31.1582 45.626 31.2194C45.6493 31.2802 45.661 31.3527 45.661 31.4369V31.5063H44.8741V31.3538H45.4441C45.4437 31.3104 45.4343 31.2719 45.416 31.2382C45.3977 31.204 45.372 31.1771 45.3391 31.1575C45.3066 31.1379 45.2687 31.1282 45.2254 31.1282C45.1791 31.1282 45.1385 31.1394 45.1035 31.1619C45.0685 31.184 45.0412 31.2132 45.0216 31.2494C45.0024 31.2852 44.9927 31.3246 44.9922 31.3675V31.5007C44.9922 31.5565 45.0024 31.6044 45.0229 31.6444C45.0433 31.684 45.0718 31.7144 45.1085 31.7357C45.1452 31.7565 45.1881 31.7669 45.2372 31.7669C45.2702 31.7669 45.3 31.7623 45.3266 31.7532C45.3533 31.7436 45.3764 31.7296 45.396 31.7113C45.4156 31.693 45.4304 31.6702 45.4404 31.6432L45.6516 31.6669C45.6383 31.7227 45.6129 31.7715 45.5754 31.8132C45.5383 31.8544 45.4908 31.8865 45.4329 31.9094C45.375 31.9319 45.3087 31.9432 45.2341 31.9432Z" fill="#291B25"/>
<path d="M12.5295 25.127C12.5295 25.5899 12.3292 25.9415 11.9286 26.1819C12.1467 26.262 12.3292 26.4 12.4761 26.5958C12.623 26.7917 12.6964 27.0699 12.6964 27.4304C12.6964 27.7865 12.5629 28.0692 12.2958 28.2784C12.0332 28.4876 11.6549 28.5922 11.1608 28.5922H9.5851C9.50943 28.5922 9.44711 28.5677 9.39815 28.5187C9.34919 28.4653 9.32471 28.3963 9.32471 28.3117V24.0387C9.32471 23.9897 9.33138 23.9585 9.34474 23.9452C9.36254 23.9274 9.39592 23.9185 9.44489 23.9185H10.9672C12.0087 23.9185 12.5295 24.3213 12.5295 25.127ZM10.6066 25.0001V25.8748H10.64C11.0673 25.8748 11.281 25.7323 11.281 25.4474C11.281 25.2917 11.2387 25.1782 11.1541 25.1069C11.074 25.0357 10.9382 25.0001 10.7468 25.0001H10.6066ZM10.6066 26.6626V27.5306H10.7268C10.9182 27.5306 11.0584 27.495 11.1474 27.4237C11.2365 27.3525 11.281 27.239 11.281 27.0832C11.281 26.9274 11.2387 26.8184 11.1541 26.7561C11.074 26.6938 10.9382 26.6626 10.7468 26.6626H10.6066Z" fill="black"/>
<path d="M15.1985 28.6589C14.5754 28.6589 14.0657 28.4542 13.6696 28.0447C13.2779 27.6352 13.082 27.0387 13.082 26.2553C13.082 25.4675 13.2801 24.871 13.6762 24.466C14.0768 24.0609 14.5909 23.8584 15.2185 23.8584C15.8506 23.8584 16.3603 24.0587 16.7475 24.4593C17.1347 24.8554 17.3284 25.4586 17.3284 26.2687C17.3284 27.0743 17.1303 27.6752 16.7341 28.0714C16.338 28.4631 15.8261 28.6589 15.1985 28.6589ZM15.2052 25.1403C14.9915 25.1403 14.8113 25.2382 14.6644 25.4341C14.5219 25.6299 14.4507 25.9059 14.4507 26.262C14.4507 26.6136 14.5197 26.8852 14.6577 27.0766C14.7957 27.2635 14.976 27.357 15.1985 27.357C15.4255 27.357 15.608 27.2613 15.746 27.0699C15.8884 26.8785 15.9597 26.6047 15.9597 26.2486C15.9597 25.8926 15.8862 25.6188 15.7393 25.4274C15.5969 25.236 15.4188 25.1403 15.2052 25.1403Z" fill="black"/>
<path d="M19.8474 28.6589C19.2243 28.6589 18.7146 28.4542 18.3185 28.0447C17.9268 27.6352 17.7309 27.0387 17.7309 26.2553C17.7309 25.4675 17.929 24.871 18.3251 24.466C18.7257 24.0609 19.2398 23.8584 19.8674 23.8584C20.4995 23.8584 21.0092 24.0587 21.3964 24.4593C21.7836 24.8554 21.9773 25.4586 21.9773 26.2687C21.9773 27.0743 21.7792 27.6752 21.383 28.0714C20.9869 28.4631 20.475 28.6589 19.8474 28.6589ZM19.8541 25.1403C19.6404 25.1403 19.4602 25.2382 19.3133 25.4341C19.1708 25.6299 19.0996 25.9059 19.0996 26.262C19.0996 26.6136 19.1686 26.8852 19.3066 27.0766C19.4446 27.2635 19.6249 27.357 19.8474 27.357C20.0744 27.357 20.2569 27.2613 20.3949 27.0699C20.5373 26.8785 20.6085 26.6047 20.6085 26.2486C20.6085 25.8926 20.5351 25.6188 20.3882 25.4274C20.2458 25.236 20.0677 25.1403 19.8541 25.1403Z" fill="black"/>
<path d="M23.8487 28.4987C23.8487 28.5655 23.6395 28.5988 23.2211 28.5988L22.8472 28.5788C22.6246 28.561 22.5133 28.5298 22.5133 28.4853V24.0053C22.5133 23.9296 22.7359 23.8918 23.181 23.8918C23.6261 23.8918 23.8487 23.9296 23.8487 24.0053V25.7145L24.6632 24.0053C24.6944 23.943 24.8724 23.9118 25.1974 23.9118C25.7894 23.9118 26.1009 23.963 26.1321 24.0654C26.1321 24.0743 26.1299 24.0832 26.1254 24.0921L24.9637 26.1886L26.3124 28.0514C26.3124 28.0603 26.2701 28.0981 26.1855 28.1649C25.9808 28.3429 25.7404 28.4831 25.4644 28.5855C25.3799 28.6166 25.2953 28.6322 25.2107 28.6322L25.0505 28.6189C24.908 28.5833 24.7968 28.492 24.7166 28.3451L23.9555 26.8896H23.8487V28.4987Z" fill="black"/>
<path d="M29.7917 28.6055C29.4044 28.6055 29.1952 28.5432 29.1641 28.4186L28.9438 27.5573H27.8822L27.6885 28.3852C27.6618 28.5232 27.4482 28.5922 27.0476 28.5922C26.8339 28.5922 26.6759 28.581 26.5735 28.5588C26.4712 28.5321 26.42 28.512 26.42 28.4987L27.6017 23.9786C27.6017 23.943 27.9066 23.9252 28.5164 23.9252C29.1263 23.9252 29.4312 23.943 29.4312 23.9786L30.5862 28.5054C30.5862 28.5365 30.4838 28.561 30.2791 28.5788C30.0743 28.5966 29.9119 28.6055 29.7917 28.6055ZM28.0491 26.7093H28.7501L28.4497 25.3273H28.4096L28.0491 26.7093Z" fill="black"/>
<path d="M32.9382 23.8584C33.2632 23.8584 33.548 23.9051 33.7928 23.9986C34.0421 24.0876 34.1667 24.21 34.1667 24.3658C34.1667 24.5216 34.1067 24.7152 33.9865 24.9467C33.8707 25.1737 33.7728 25.2872 33.6927 25.2872C33.6704 25.2872 33.6437 25.2761 33.6126 25.2538C33.5859 25.2271 33.5191 25.2004 33.4123 25.1737C33.3099 25.1425 33.2209 25.127 33.1452 25.127C32.887 25.127 32.6778 25.2182 32.5176 25.4007C32.3618 25.5832 32.2839 25.8636 32.2839 26.242C32.2839 26.6159 32.364 26.8941 32.5243 27.0766C32.689 27.2591 32.8959 27.3503 33.1452 27.3503C33.2476 27.3503 33.3611 27.3369 33.4857 27.3102C33.6148 27.2791 33.7061 27.2368 33.7595 27.1834C33.7684 27.1745 33.7862 27.17 33.8129 27.17C33.8396 27.17 33.8885 27.2212 33.9598 27.3236C34.0354 27.4215 34.1044 27.5528 34.1667 27.7175C34.2291 27.8778 34.2602 28.0024 34.2602 28.0914C34.2602 28.265 34.1267 28.403 33.8596 28.5054C33.5925 28.6077 33.2765 28.6589 32.9115 28.6589C32.324 28.6589 31.841 28.452 31.4627 28.038C31.0843 27.624 30.8952 27.0409 30.8952 26.2887C30.8952 25.532 31.0888 24.9378 31.476 24.506C31.8677 24.0743 32.3551 23.8584 32.9382 23.8584Z" fill="black"/>
<path d="M36.0465 28.4987C36.0465 28.5699 35.8351 28.6055 35.4123 28.6055C34.9849 28.6055 34.7713 28.5721 34.7713 28.5054V24.1522C34.7713 23.9964 34.8536 23.9185 35.0183 23.9185H36.2936C37.4642 23.9185 38.0495 24.3747 38.0495 25.2872C38.0495 25.5632 37.9961 25.8147 37.8893 26.0417C37.7825 26.2642 37.6311 26.4423 37.4353 26.5758L38.2765 27.9779C38.2409 28.0847 38.1252 28.2071 37.9294 28.3451C37.6623 28.5365 37.442 28.6322 37.2684 28.6322C37.0948 28.6322 36.9657 28.5699 36.8811 28.4453L36.2535 26.9831H36.0465V28.4987ZM36.0465 25.1003V26.1018H36.0799C36.5028 26.1018 36.7142 25.9259 36.7142 25.5743C36.7142 25.4141 36.6719 25.2961 36.5873 25.2204C36.5072 25.1403 36.3737 25.1003 36.1867 25.1003H36.0465Z" fill="black"/>
<path d="M39.1501 27.4438V25.0669H38.6761C38.6004 25.0669 38.547 24.9712 38.5159 24.7798C38.5025 24.6863 38.4958 24.5906 38.4958 24.4927C38.4958 24.3948 38.5025 24.2991 38.5159 24.2056C38.547 24.0142 38.6004 23.9185 38.6761 23.9185H40.9195C40.9951 23.9185 41.0463 24.0142 41.073 24.2056C41.0908 24.2991 41.0997 24.3948 41.0997 24.4927C41.0997 24.5906 41.0908 24.6863 41.073 24.7798C41.0463 24.9712 40.9951 25.0669 40.9195 25.0669H40.4721V27.4438H40.9395C41.0152 27.4438 41.0686 27.5395 41.0997 27.7309C41.1175 27.8243 41.1264 27.92 41.1264 28.018C41.1264 28.1159 41.1175 28.2116 41.0997 28.3051C41.0686 28.4965 41.0152 28.5922 40.9395 28.5922H38.6895C38.6138 28.5922 38.5626 28.4965 38.5359 28.3051C38.5181 28.2116 38.5092 28.1159 38.5092 28.018C38.5092 27.92 38.5181 27.8243 38.5359 27.7309C38.5626 27.5395 38.6138 27.4438 38.6895 27.4438H39.1501Z" fill="black"/>
<path d="M44.8501 25.127C44.8501 25.5899 44.6498 25.9415 44.2492 26.1819C44.4673 26.262 44.6498 26.4 44.7967 26.5958C44.9436 26.7917 45.017 27.0699 45.017 27.4304C45.017 27.7865 44.8835 28.0692 44.6164 28.2784C44.3538 28.4876 43.9755 28.5922 43.4814 28.5922H41.9057C41.83 28.5922 41.7677 28.5677 41.7187 28.5187C41.6698 28.4653 41.6453 28.3963 41.6453 28.3117V24.0387C41.6453 23.9897 41.652 23.9585 41.6653 23.9452C41.6831 23.9274 41.7165 23.9185 41.7655 23.9185H43.2878C44.3293 23.9185 44.8501 24.3213 44.8501 25.127ZM42.9272 25.0001V25.8748H42.9606C43.3879 25.8748 43.6016 25.7323 43.6016 25.4474C43.6016 25.2917 43.5593 25.1782 43.4747 25.1069C43.3946 25.0357 43.2588 25.0001 43.0674 25.0001H42.9272ZM42.9272 26.6626V27.5306H43.0474C43.2388 27.5306 43.379 27.495 43.468 27.4237C43.5571 27.3525 43.6016 27.239 43.6016 27.0832C43.6016 26.9274 43.5593 26.8184 43.4747 26.7561C43.3946 26.6938 43.2588 26.6626 43.0674 26.6626H42.9272Z" fill="black"/>
</g>
<defs>
<clipPath id="clip0_3158_10427">
<rect width="163" height="48" fill="white"/>
</clipPath>
</defs>
</svg>
