<svg width="216" height="48" viewBox="0 0 216 48" fill="none" xmlns="http://www.w3.org/2000/svg">
<rect x="0.25" y="0.25" width="47.5" height="47.5" rx="5.75" fill="white"/>
<rect x="0.25" y="0.25" width="47.5" height="47.5" rx="5.75" stroke="#543685" stroke-width="0.5"/>
<path d="M9.67834 26.401C9.67834 23.9402 11.6732 21.9453 14.134 21.9453H36.7597V30.7697H13.3818C11.3364 30.7697 9.67834 29.1116 9.67834 27.0662V26.401Z" fill="#543685"/>
<path d="M11.7325 27.0276C11.7325 25.6748 12.8292 24.5781 14.182 24.5781H36.4414V29.0634H13.7684C12.644 29.0634 11.7325 28.1519 11.7325 27.0276Z" fill="white"/>
<path d="M13.266 26.4481C13.266 26.3085 13.3792 26.1953 13.5188 26.1953H30.2787V26.6582H13.4761C13.3601 26.6582 13.266 26.5642 13.266 26.4481Z" fill="#543685"/>
<path d="M14.1051 27.7841C14.1051 27.6444 14.2183 27.5312 14.3579 27.5312H31.1178V27.9942H14.3152C14.1992 27.9942 14.1051 27.9001 14.1051 27.7841Z" fill="#543685"/>
<g clip-path="url(#clip0_637_9037)">
<rect width="15.9711" height="4.19279" transform="translate(16.564 6)" fill="#543685"/>
<rect x="17.8368" y="6" width="13.5986" height="0.75226" fill="white"/>
<rect x="17.8368" y="9.00781" width="6.91501" height="3.00904" rx="1.50452" fill="white"/>
<rect x="24.5204" y="9.00781" width="6.91501" height="3.00904" rx="1.50452" fill="white"/>
</g>
<path d="M16.5588 10.7266H32.5122L38.3217 23.9144L10.5748 23.4024L16.5588 10.7266Z" fill="#543685"/>
<path d="M18.4116 11.8984H31.1743L36.1517 23.4042H12.9474L18.4116 11.8984Z" fill="white"/>
<path d="M31.5511 27.0871C31.5511 25.0542 33.1991 23.4062 35.232 23.4062H37.6271C38.0106 23.4062 38.3215 23.7171 38.3215 24.1006V30.768H35.232C33.1991 30.768 31.5511 29.12 31.5511 27.0871Z" fill="#543685"/>
<ellipse cx="36.0068" cy="27.084" rx="2.31465" ry="1.91215" fill="white"/>
<rect x="35.949" y="25.1719" width="2.37251" height="3.82429" fill="white"/>
<path d="M8.88 39.3556C8.89333 39.3823 8.91667 39.4156 8.95 39.4556C9.05667 39.589 9.15667 39.7223 9.25 39.8556C9.35 39.9823 9.43333 40.119 9.5 40.2656C9.57333 40.4056 9.62333 40.5623 9.65 40.7356C9.67667 40.909 9.67 41.1023 9.63 41.3156C9.57667 41.629 9.47333 41.8856 9.32 42.0856C9.17333 42.279 8.99333 42.429 8.78 42.5356C8.56667 42.6423 8.33 42.7156 8.07 42.7556C7.81 42.789 7.54 42.8056 7.26 42.8056C6.98667 42.8123 6.71 42.8056 6.43 42.7856C6.15667 42.7656 5.9 42.7523 5.66 42.7456C5.62 42.7456 5.58 42.7456 5.54 42.7456C5.50667 42.7456 5.47333 42.739 5.44 42.7256C5.4 41.5723 5.39 40.429 5.41 39.2956C5.43 38.1556 5.43 37.0056 5.41 35.8456L5.42 35.8356C5.68667 35.7623 5.97 35.7056 6.27 35.6656C6.57 35.6256 6.86667 35.6123 7.16 35.6256C7.45333 35.639 7.73333 35.6823 8 35.7556C8.27333 35.829 8.51333 35.949 8.72 36.1156C8.92667 36.2756 9.09 36.4856 9.21 36.7456C9.33 36.999 9.39 37.3123 9.39 37.6856C9.39 37.9656 9.34 38.239 9.24 38.5056C9.14667 38.7723 9.03333 39.019 8.9 39.2456C8.87333 39.2923 8.86667 39.329 8.88 39.3556ZM7.77 41.2956C7.86333 41.2556 7.94333 41.1956 8.01 41.1156C8.08333 41.0156 8.11667 40.8956 8.11 40.7556C8.11 40.6156 8.08667 40.489 8.04 40.3756C8 40.2956 7.94 40.2256 7.86 40.1656C7.78 40.099 7.69667 40.0556 7.61 40.0356C7.48333 40.0023 7.35333 39.9856 7.22 39.9856C7.08667 39.979 6.95667 39.969 6.83 39.9556C6.80333 40.0556 6.78 40.169 6.76 40.2956C6.74 40.4223 6.72667 40.5523 6.72 40.6856C6.72 40.8123 6.73 40.9356 6.75 41.0556C6.77 41.1756 6.80667 41.2756 6.86 41.3556L6.88 41.3656C6.97333 41.3656 7.07 41.369 7.17 41.3756C7.27667 41.3756 7.38 41.3723 7.48 41.3656C7.58667 41.3523 7.68333 41.329 7.77 41.2956ZM7.78 38.4956C7.87333 38.4423 7.94667 38.3656 8 38.2656C8.04667 38.1856 8.08667 38.0923 8.12 37.9856C8.15333 37.879 8.14333 37.7723 8.09 37.6656C8.03667 37.559 7.96667 37.479 7.88 37.4256C7.8 37.3656 7.70667 37.3223 7.6 37.2956C7.46667 37.269 7.32333 37.2556 7.17 37.2556C7.02333 37.249 6.9 37.2723 6.8 37.3256C6.81333 37.479 6.80667 37.6656 6.78 37.8856C6.76 38.1056 6.78 38.3323 6.84 38.5656C6.94 38.579 7.04667 38.589 7.16 38.5956C7.27333 38.6023 7.38333 38.599 7.49 38.5856C7.59667 38.5723 7.69333 38.5423 7.78 38.4956ZM10.1372 38.5056C10.1772 38.379 10.2072 38.279 10.2272 38.2056C10.2739 38.1056 10.3472 38.019 10.4472 37.9456C10.5539 37.8723 10.6739 37.8123 10.8072 37.7656C10.9472 37.7123 11.0939 37.6756 11.2472 37.6556C11.4072 37.6356 11.5672 37.6256 11.7272 37.6256C11.8605 37.639 11.9872 37.6423 12.1072 37.6356C12.2339 37.6223 12.3672 37.6223 12.5072 37.6356C12.7205 37.649 12.9239 37.6923 13.1172 37.7656C13.3105 37.8323 13.4772 37.9323 13.6172 38.0656C13.7105 38.1256 13.7839 38.2223 13.8372 38.3556C13.8905 38.489 13.9305 38.6456 13.9572 38.8256C13.9839 38.999 14.0005 39.1923 14.0072 39.4056C14.0139 39.6123 14.0205 39.8256 14.0272 40.0456C14.0205 40.239 14.0105 40.459 13.9972 40.7056C13.9905 40.9523 13.9739 41.189 13.9472 41.4156C13.9272 41.6423 13.8972 41.8456 13.8572 42.0256C13.8239 42.2056 13.7739 42.329 13.7072 42.3956C13.5939 42.5556 13.4439 42.669 13.2572 42.7356C13.0772 42.8023 12.8805 42.8423 12.6672 42.8556C12.4539 42.8756 12.2339 42.8756 12.0072 42.8556C11.7805 42.8423 11.5739 42.8356 11.3872 42.8356C11.0472 42.7756 10.7605 42.629 10.5272 42.3956C10.3472 42.2356 10.2239 42.0356 10.1572 41.7956C10.0905 41.5556 10.0505 41.3056 10.0372 41.0456C10.0239 40.779 10.0205 40.5123 10.0272 40.2456C10.0405 39.979 10.0372 39.7356 10.0172 39.5156C10.0172 39.3956 10.0205 39.279 10.0272 39.1656C10.0339 39.0456 10.0472 38.9223 10.0672 38.7956C10.0739 38.7223 10.0972 38.6256 10.1372 38.5056ZM11.8172 39.1656C11.6772 39.2056 11.5639 39.279 11.4772 39.3856C11.4372 39.4123 11.4072 39.479 11.3872 39.5856C11.3605 39.799 11.3472 40.0123 11.3472 40.2256C11.3472 40.4323 11.3405 40.6523 11.3272 40.8856C11.3205 41.039 11.3605 41.159 11.4472 41.2456C11.5339 41.3256 11.6372 41.3823 11.7572 41.4156C11.8839 41.4423 12.0139 41.449 12.1472 41.4356C12.2805 41.4156 12.3905 41.3823 12.4772 41.3356C12.5905 41.2823 12.6672 41.1723 12.7072 41.0056C12.7339 40.7923 12.7539 40.579 12.7672 40.3656C12.7872 40.1456 12.7772 39.939 12.7372 39.7456C12.7039 39.5123 12.6072 39.3423 12.4472 39.2356C12.2872 39.129 12.0772 39.1056 11.8172 39.1656ZM14.6312 38.5056C14.6712 38.379 14.7012 38.279 14.7212 38.2056C14.7679 38.1056 14.8412 38.019 14.9412 37.9456C15.0479 37.8723 15.1679 37.8123 15.3012 37.7656C15.4412 37.7123 15.5879 37.6756 15.7412 37.6556C15.9012 37.6356 16.0612 37.6256 16.2212 37.6256C16.3545 37.639 16.4812 37.6423 16.6012 37.6356C16.7279 37.6223 16.8612 37.6223 17.0012 37.6356C17.2145 37.649 17.4179 37.6923 17.6112 37.7656C17.8045 37.8323 17.9712 37.9323 18.1112 38.0656C18.2045 38.1256 18.2779 38.2223 18.3312 38.3556C18.3845 38.489 18.4245 38.6456 18.4512 38.8256C18.4779 38.999 18.4945 39.1923 18.5012 39.4056C18.5079 39.6123 18.5145 39.8256 18.5212 40.0456C18.5145 40.239 18.5045 40.459 18.4912 40.7056C18.4845 40.9523 18.4679 41.189 18.4412 41.4156C18.4212 41.6423 18.3912 41.8456 18.3512 42.0256C18.3179 42.2056 18.2679 42.329 18.2012 42.3956C18.0879 42.5556 17.9379 42.669 17.7512 42.7356C17.5712 42.8023 17.3745 42.8423 17.1612 42.8556C16.9479 42.8756 16.7279 42.8756 16.5012 42.8556C16.2745 42.8423 16.0679 42.8356 15.8812 42.8356C15.5412 42.7756 15.2545 42.629 15.0212 42.3956C14.8412 42.2356 14.7179 42.0356 14.6512 41.7956C14.5845 41.5556 14.5445 41.3056 14.5312 41.0456C14.5179 40.779 14.5145 40.5123 14.5212 40.2456C14.5345 39.979 14.5312 39.7356 14.5112 39.5156C14.5112 39.3956 14.5145 39.279 14.5212 39.1656C14.5279 39.0456 14.5412 38.9223 14.5612 38.7956C14.5679 38.7223 14.5912 38.6256 14.6312 38.5056ZM16.3112 39.1656C16.1712 39.2056 16.0579 39.279 15.9712 39.3856C15.9312 39.4123 15.9012 39.479 15.8812 39.5856C15.8545 39.799 15.8412 40.0123 15.8412 40.2256C15.8412 40.4323 15.8345 40.6523 15.8212 40.8856C15.8145 41.039 15.8545 41.159 15.9412 41.2456C16.0279 41.3256 16.1312 41.3823 16.2512 41.4156C16.3779 41.4423 16.5079 41.449 16.6412 41.4356C16.7745 41.4156 16.8845 41.3823 16.9712 41.3356C17.0845 41.2823 17.1612 41.1723 17.2012 41.0056C17.2279 40.7923 17.2479 40.579 17.2612 40.3656C17.2812 40.1456 17.2712 39.939 17.2312 39.7456C17.1979 39.5123 17.1012 39.3423 16.9412 39.2356C16.7812 39.129 16.5712 39.1056 16.3112 39.1656ZM20.2052 35.4856C20.3185 35.4856 20.4185 35.4923 20.5052 35.5056V37.6956C20.5052 37.9156 20.4985 38.149 20.4852 38.3956C20.4785 38.6423 20.4852 38.8423 20.5052 38.9956C20.6185 38.8956 20.7152 38.7856 20.7952 38.6656C20.8819 38.5456 20.9619 38.4256 21.0352 38.3056C21.1085 38.179 21.1819 38.0523 21.2552 37.9256C21.3352 37.799 21.4252 37.679 21.5252 37.5656C21.6119 37.599 21.7252 37.619 21.8652 37.6256C22.0052 37.6256 22.1485 37.6256 22.2952 37.6256C22.4485 37.619 22.5985 37.6123 22.7452 37.6056C22.8919 37.5923 23.0119 37.589 23.1052 37.5956C22.8585 37.9756 22.5919 38.3523 22.3052 38.7256C22.0185 39.0923 21.7352 39.4623 21.4552 39.8356C21.7552 40.3223 22.0552 40.8056 22.3552 41.2856C22.6619 41.759 22.9419 42.2523 23.1952 42.7656C23.1019 42.7656 22.9819 42.769 22.8352 42.7756C22.6952 42.789 22.5485 42.799 22.3952 42.8056C22.2419 42.8123 22.0919 42.8123 21.9452 42.8056C21.8052 42.799 21.6852 42.7856 21.5852 42.7656C21.4852 42.6056 21.3919 42.4423 21.3052 42.2756C21.2252 42.109 21.1452 41.9456 21.0652 41.7856C20.9852 41.619 20.8985 41.4556 20.8052 41.2956C20.7185 41.1356 20.6185 40.9823 20.5052 40.8356C20.5052 40.9556 20.5085 41.0956 20.5152 41.2556C20.5219 41.4156 20.5252 41.5823 20.5252 41.7556C20.5252 41.929 20.5219 42.1056 20.5152 42.2856C20.5085 42.459 20.4919 42.619 20.4652 42.7656C20.3919 42.759 20.2985 42.759 20.1852 42.7656C20.0785 42.7656 19.9652 42.769 19.8452 42.7756C19.7252 42.7823 19.6019 42.7856 19.4752 42.7856C19.3552 42.7856 19.2452 42.779 19.1452 42.7656C19.0985 41.5256 19.0885 40.309 19.1152 39.1156C19.1419 37.9223 19.1519 36.719 19.1452 35.5056C19.2452 35.5056 19.3552 35.5056 19.4752 35.5056C19.6019 35.499 19.7252 35.4956 19.8452 35.4956C19.9719 35.489 20.0919 35.4856 20.2052 35.4856ZM26.6495 37.7556C26.8162 37.7623 27.0062 37.7723 27.2195 37.7856C27.2262 37.8256 27.2295 37.8656 27.2295 37.9056C27.2362 37.9456 27.2395 37.9856 27.2395 38.0256V38.1256C27.2195 38.8456 27.2228 39.5556 27.2495 40.2556C27.2762 40.949 27.2662 41.6523 27.2195 42.3656C27.2195 42.4523 27.2162 42.539 27.2095 42.6256C27.2095 42.7123 27.1695 42.7623 27.0895 42.7756H26.9695C26.8628 42.7756 26.7528 42.7723 26.6395 42.7656C26.5328 42.7523 26.4262 42.7456 26.3195 42.7456C26.2462 42.7456 26.1728 42.7523 26.0995 42.7656C26.0328 42.7723 25.9628 42.7756 25.8895 42.7756C25.8428 42.7623 25.8095 42.7356 25.7895 42.6956C25.7762 42.6556 25.7695 42.609 25.7695 42.5556C25.7695 42.4823 25.7762 42.4223 25.7895 42.3756C25.8028 42.329 25.8095 42.2723 25.8095 42.2056C25.6495 42.3656 25.4462 42.5023 25.1995 42.6156C24.9595 42.729 24.7228 42.7856 24.4895 42.7856C24.2295 42.7856 24.0062 42.6956 23.8195 42.5156C23.6395 42.3356 23.4895 42.1123 23.3695 41.8456C23.2495 41.579 23.1595 41.289 23.0995 40.9756C23.0462 40.6623 23.0195 40.3723 23.0195 40.1056C23.0195 39.7723 23.0628 39.4656 23.1495 39.1856C23.2362 38.9056 23.3528 38.6656 23.4995 38.4656C23.6528 38.259 23.8328 38.099 24.0395 37.9856C24.2462 37.8656 24.4662 37.8023 24.6995 37.7956C24.8195 37.7956 24.9295 37.799 25.0295 37.8056C25.1362 37.8056 25.2328 37.8223 25.3195 37.8556C25.4062 37.8823 25.4828 37.929 25.5495 37.9956C25.6162 38.0556 25.6728 38.1423 25.7195 38.2556C25.7128 38.149 25.7162 38.059 25.7295 37.9856C25.7495 37.9056 25.7595 37.8256 25.7595 37.7456C25.7595 37.739 25.7795 37.7356 25.8195 37.7356C25.8662 37.729 25.9162 37.729 25.9695 37.7356C26.0228 37.7356 26.0762 37.7356 26.1295 37.7356C26.1828 37.7356 26.2195 37.7356 26.2395 37.7356C26.3528 37.7423 26.4895 37.749 26.6495 37.7556ZM24.5895 39.3356C24.4362 39.4623 24.3428 39.609 24.3095 39.7756C24.2828 39.8623 24.2662 39.9523 24.2595 40.0456C24.2528 40.1323 24.2495 40.219 24.2495 40.3056C24.2495 40.6056 24.3262 40.8623 24.4795 41.0756C24.6395 41.2823 24.8595 41.3856 25.1395 41.3856C25.3062 41.3856 25.4295 41.359 25.5095 41.3056C25.5962 41.2456 25.6562 41.1656 25.6895 41.0656C25.7295 40.959 25.7495 40.8323 25.7495 40.6856C25.7562 40.5323 25.7595 40.3623 25.7595 40.1756C25.7595 39.9423 25.7562 39.759 25.7495 39.6256C25.7495 39.4856 25.7328 39.379 25.6995 39.3056C25.6728 39.2323 25.6228 39.1856 25.5495 39.1656C25.4828 39.1456 25.3795 39.1356 25.2395 39.1356C24.9662 39.1356 24.7495 39.2023 24.5895 39.3356ZM29.7469 37.2356C29.6536 37.2556 29.5803 37.2923 29.5269 37.3456C29.5136 37.359 29.5003 37.3823 29.4869 37.4156C29.4803 37.4423 29.4736 37.4623 29.4669 37.4756C29.4536 37.4956 29.4403 37.6123 29.4269 37.8256C29.4203 38.039 29.4136 38.2923 29.4069 38.5856C29.4003 38.879 29.3969 39.1856 29.3969 39.5056C29.3969 39.819 29.4069 40.0923 29.4269 40.3256C29.4469 40.519 29.4969 40.709 29.5769 40.8956C29.6636 41.0756 29.8036 41.1923 29.9969 41.2456C30.1436 41.259 30.2803 41.239 30.4069 41.1856C30.5403 41.1256 30.6403 41.029 30.7069 40.8956C30.7803 40.7423 30.8103 40.5823 30.7969 40.4156C30.7903 40.2423 30.8036 40.0723 30.8369 39.9056C30.9303 39.919 31.0336 39.9223 31.1469 39.9156C31.2669 39.909 31.3869 39.9056 31.5069 39.9056C31.6269 39.9056 31.7436 39.909 31.8569 39.9156C31.9769 39.9223 32.0836 39.939 32.1769 39.9656C32.2903 40.3123 32.3203 40.659 32.2669 41.0056C32.2136 41.3456 32.0969 41.6523 31.9169 41.9256C31.7369 42.199 31.5003 42.4256 31.2069 42.6056C30.9203 42.779 30.5936 42.869 30.2269 42.8756C29.9869 42.909 29.7403 42.909 29.4869 42.8756C29.2336 42.849 28.9969 42.7856 28.7769 42.6856C28.5569 42.579 28.3703 42.4323 28.2169 42.2456C28.0703 42.059 27.9836 41.8256 27.9569 41.5456C27.9436 41.3056 27.9336 41.0556 27.9269 40.7956C27.9203 40.5356 27.9136 40.2456 27.9069 39.9256C27.9069 39.599 27.9069 39.2323 27.9069 38.8256C27.9136 38.4123 27.9203 37.9356 27.9269 37.3956C27.9136 37.2823 27.9169 37.169 27.9369 37.0556C27.9636 36.9356 27.9969 36.8256 28.0369 36.7256C28.0969 36.5523 28.1703 36.3923 28.2569 36.2456C28.3503 36.099 28.4603 35.969 28.5869 35.8556C28.6603 35.8023 28.7403 35.759 28.8269 35.7256C28.9136 35.6856 29.0036 35.6523 29.0969 35.6256C29.4036 35.5256 29.7069 35.4856 30.0069 35.5056C30.3069 35.5256 30.5869 35.5956 30.8469 35.7156C31.1136 35.829 31.3536 35.9823 31.5669 36.1756C31.7803 36.369 31.9503 36.5923 32.0769 36.8456C32.2036 37.0923 32.2803 37.3623 32.3069 37.6556C32.3336 37.949 32.2936 38.249 32.1869 38.5556C31.9403 38.609 31.6969 38.629 31.4569 38.6156C31.2236 38.5956 30.9803 38.5623 30.7269 38.5156C30.7069 38.389 30.6936 38.2456 30.6869 38.0856C30.6869 37.9256 30.6703 37.779 30.6369 37.6456C30.6036 37.5056 30.5403 37.3923 30.4469 37.3056C30.3603 37.219 30.2203 37.179 30.0269 37.1856C29.9403 37.199 29.8469 37.2156 29.7469 37.2356ZM34.2113 38.0156C34.218 38.0356 34.2213 38.069 34.2213 38.1156C34.248 38.1023 34.308 38.0756 34.4013 38.0356C34.5013 37.9956 34.598 37.959 34.6913 37.9256C34.818 37.8856 34.9613 37.8556 35.1213 37.8356C35.2813 37.809 35.4313 37.7923 35.5713 37.7856C35.7113 37.779 35.828 37.779 35.9213 37.7856C36.0213 37.7856 36.0713 37.789 36.0713 37.7956C36.0713 38.0223 36.068 38.2223 36.0613 38.3956C36.0613 38.569 36.0613 38.7256 36.0613 38.8656C36.0613 38.999 36.0613 39.1223 36.0613 39.2356C36.0613 39.349 36.0646 39.4556 36.0713 39.5556L35.9813 39.5256C35.948 39.5123 35.9113 39.5023 35.8713 39.4956C35.838 39.4823 35.8046 39.469 35.7713 39.4556C35.6913 39.4356 35.608 39.419 35.5213 39.4056C35.4413 39.3923 35.398 39.3856 35.3913 39.3856C35.2113 39.3656 35.0446 39.3556 34.8913 39.3556C34.7446 39.3556 34.6146 39.379 34.5013 39.4256C34.3946 39.4723 34.3113 39.5456 34.2513 39.6456C34.1913 39.7456 34.1646 39.889 34.1713 40.0756C34.178 40.309 34.1846 40.529 34.1913 40.7356C34.198 40.9423 34.2013 41.1523 34.2013 41.3656C34.2013 41.5723 34.2013 41.7856 34.2013 42.0056C34.208 42.219 34.2113 42.449 34.2113 42.6956V42.7356C34.098 42.769 33.9946 42.789 33.9013 42.7956C33.808 42.8023 33.7113 42.8023 33.6113 42.7956C33.5113 42.7956 33.4013 42.7923 33.2813 42.7856C33.168 42.779 33.0313 42.7823 32.8713 42.7956C32.8713 41.9756 32.8613 41.1556 32.8413 40.3356C32.828 39.5156 32.8346 38.6656 32.8613 37.7856C32.9413 37.7923 33.008 37.799 33.0613 37.8056C33.1146 37.8056 33.1646 37.8056 33.2113 37.8056C33.258 37.8056 33.308 37.8056 33.3613 37.8056C33.4146 37.799 33.4813 37.7923 33.5613 37.7856C33.588 37.7856 33.6346 37.7823 33.7013 37.7756C33.7746 37.769 33.848 37.7623 33.9213 37.7556C34.0013 37.749 34.068 37.749 34.1213 37.7556C34.1813 37.7556 34.2113 37.7623 34.2113 37.7756C34.2113 37.829 34.2113 37.869 34.2113 37.8956C34.2113 37.9223 34.2113 37.9456 34.2113 37.9656C34.2113 37.979 34.2113 37.9956 34.2113 38.0156ZM37.2145 37.7356C37.3679 37.7423 37.5512 37.7423 37.7645 37.7356H37.9345V37.7656C37.9279 38.5723 37.9112 39.3956 37.8845 40.2356C37.8645 41.0756 37.8779 41.899 37.9245 42.7056C37.8912 42.7456 37.8079 42.7656 37.6745 42.7656C37.5412 42.7723 37.3945 42.7723 37.2345 42.7656C37.0812 42.7656 36.9345 42.7623 36.7945 42.7556C36.6545 42.749 36.5612 42.7523 36.5145 42.7656C36.5479 42.3456 36.5612 41.919 36.5545 41.4856C36.5545 41.0523 36.5479 40.6223 36.5345 40.1956C36.5212 39.769 36.5145 39.349 36.5145 38.9356C36.5145 38.5156 36.5345 38.109 36.5745 37.7156V37.7056C36.6012 37.699 36.6445 37.699 36.7045 37.7056C36.7712 37.7123 36.8212 37.7156 36.8545 37.7156C36.9412 37.7223 37.0612 37.729 37.2145 37.7356ZM36.5445 36.3356C36.5312 36.1223 36.5279 35.8623 36.5345 35.5556L37.8945 35.5856C37.8945 35.6256 37.8945 35.699 37.8945 35.8056C37.9012 35.9056 37.9045 36.019 37.9045 36.1456C37.9112 36.2656 37.9145 36.3923 37.9145 36.5256C37.9212 36.6523 37.9245 36.7656 37.9245 36.8656C37.8979 36.9056 37.8345 36.9323 37.7345 36.9456C37.6412 36.959 37.5279 36.9656 37.3945 36.9656C37.2679 36.959 37.1312 36.9523 36.9845 36.9456C36.8379 36.9323 36.7012 36.929 36.5745 36.9356C36.5745 36.7423 36.5645 36.5423 36.5445 36.3356ZM39.7964 35.7156C39.8897 35.7223 39.9364 35.729 39.9364 35.7356V35.8456C39.9431 35.979 39.9464 36.0823 39.9464 36.1556C39.9531 36.2223 39.9564 36.2856 39.9564 36.3456C39.9631 36.399 39.9664 36.459 39.9664 36.5256C39.9731 36.5856 39.9764 36.6756 39.9764 36.7956C39.9764 36.909 39.9764 37.0623 39.9764 37.2556C39.9764 37.449 39.9731 37.7023 39.9664 38.0156C39.9797 37.9556 40.0531 37.9023 40.1864 37.8556C40.3197 37.809 40.4831 37.779 40.6764 37.7656C40.8697 37.7456 41.0731 37.7456 41.2864 37.7656C41.5064 37.779 41.7064 37.819 41.8864 37.8856C42.0331 37.939 42.1564 38.0323 42.2564 38.1656C42.3631 38.2923 42.4464 38.449 42.5064 38.6356C42.5731 38.8156 42.6197 39.0156 42.6464 39.2356C42.6797 39.4556 42.6964 39.6823 42.6964 39.9156C42.6831 40.249 42.6597 40.579 42.6264 40.9056C42.5931 41.2323 42.5197 41.529 42.4064 41.7956C42.2997 42.0556 42.1364 42.2723 41.9164 42.4456C41.6964 42.6123 41.3964 42.709 41.0164 42.7356C40.8297 42.7623 40.6531 42.749 40.4864 42.6956C40.3197 42.6356 40.1864 42.5056 40.0864 42.3056C40.0664 42.2656 40.0464 42.2556 40.0264 42.2756C40.0131 42.289 39.9997 42.3123 39.9864 42.3456C39.9864 42.419 39.9831 42.4756 39.9764 42.5156C39.9764 42.5556 39.9764 42.609 39.9764 42.6756C39.9764 42.709 39.9731 42.7323 39.9664 42.7456C39.7664 42.7723 39.5431 42.779 39.2964 42.7656C39.0497 42.759 38.8231 42.7556 38.6164 42.7556C38.6031 42.2756 38.5964 41.779 38.5964 41.2656C38.6031 40.7456 38.6097 40.219 38.6164 39.6856C38.6297 39.1456 38.6431 38.599 38.6564 38.0456C38.6697 37.4923 38.6764 36.939 38.6764 36.3856V35.7256C38.7831 35.7056 38.9097 35.6956 39.0564 35.6956C39.2031 35.689 39.3397 35.689 39.4664 35.6956C39.5997 35.6956 39.7097 35.7023 39.7964 35.7156ZM41.5464 39.9056C41.5397 39.8056 41.5197 39.709 41.4864 39.6156C41.4531 39.3823 41.3531 39.2056 41.1864 39.0856C41.0264 38.9656 40.8097 38.9056 40.5364 38.9056C40.3964 38.9056 40.2831 38.919 40.1964 38.9456C40.1164 38.9656 40.0564 39.0156 40.0164 39.0956C39.9764 39.1756 39.9497 39.2923 39.9364 39.4456C39.9297 39.5923 39.9264 39.7956 39.9264 40.0556C39.9264 40.269 39.9297 40.4656 39.9364 40.6456C39.9497 40.819 39.9797 40.969 40.0264 41.0956C40.0797 41.2223 40.1531 41.3223 40.2464 41.3956C40.3397 41.469 40.4731 41.5056 40.6464 41.5056C40.7864 41.5056 40.9131 41.469 41.0264 41.3956C41.1397 41.3223 41.2364 41.2256 41.3164 41.1056C41.3964 40.979 41.4564 40.839 41.4964 40.6856C41.5364 40.5256 41.5564 40.3623 41.5564 40.1956C41.5564 40.1023 41.5531 40.0056 41.5464 39.9056Z" fill="#373F41"/>
<path d="M57.517 33V15.5455H64.5057C65.7898 15.5455 66.8608 15.7358 67.7188 16.1165C68.5767 16.4972 69.2216 17.0256 69.6534 17.7017C70.0852 18.3722 70.3011 19.1449 70.3011 20.0199C70.3011 20.7017 70.1648 21.3011 69.892 21.8182C69.6193 22.3295 69.2443 22.75 68.767 23.0795C68.2955 23.4034 67.7557 23.6335 67.1477 23.7699V23.9403C67.8125 23.9687 68.4347 24.1562 69.0142 24.5028C69.5994 24.8494 70.0739 25.3352 70.4375 25.9602C70.8011 26.5795 70.983 27.3182 70.983 28.1761C70.983 29.1023 70.7528 29.929 70.2926 30.6562C69.8381 31.3778 69.1648 31.9489 68.2727 32.3693C67.3807 32.7898 66.2813 33 64.9744 33H57.517ZM61.2074 29.983H64.2159C65.2443 29.983 65.9943 29.7869 66.4659 29.3949C66.9375 28.9972 67.1733 28.4687 67.1733 27.8097C67.1733 27.3267 67.0568 26.9006 66.8239 26.5312C66.5909 26.1619 66.2585 25.8722 65.8267 25.6619C65.4006 25.4517 64.892 25.3466 64.3011 25.3466H61.2074V29.983ZM61.2074 22.8494H63.9432C64.4489 22.8494 64.8977 22.7614 65.2898 22.5852C65.6875 22.4034 66 22.1477 66.2273 21.8182C66.4602 21.4886 66.5767 21.0938 66.5767 20.6335C66.5767 20.0028 66.3523 19.4943 65.9034 19.108C65.4602 18.7216 64.8295 18.5284 64.0114 18.5284H61.2074V22.8494ZM79.4308 33.2557C78.107 33.2557 76.9621 32.9744 75.9962 32.4119C75.0359 31.8437 74.2945 31.054 73.7717 30.0426C73.249 29.0256 72.9876 27.8466 72.9876 26.5057C72.9876 25.1534 73.249 23.9716 73.7717 22.9602C74.2945 21.9432 75.0359 21.1534 75.9962 20.5909C76.9621 20.0227 78.107 19.7386 79.4308 19.7386C80.7547 19.7386 81.8967 20.0227 82.857 20.5909C83.8229 21.1534 84.5672 21.9432 85.0899 22.9602C85.6126 23.9716 85.874 25.1534 85.874 26.5057C85.874 27.8466 85.6126 29.0256 85.0899 30.0426C84.5672 31.054 83.8229 31.8437 82.857 32.4119C81.8967 32.9744 80.7547 33.2557 79.4308 33.2557ZM79.4479 30.4432C80.0501 30.4432 80.553 30.2727 80.9564 29.9318C81.3598 29.5852 81.6638 29.1136 81.8683 28.517C82.0786 27.9205 82.1837 27.2415 82.1837 26.4801C82.1837 25.7188 82.0786 25.0398 81.8683 24.4432C81.6638 23.8466 81.3598 23.375 80.9564 23.0284C80.553 22.6818 80.0501 22.5085 79.4479 22.5085C78.8399 22.5085 78.3286 22.6818 77.9138 23.0284C77.5047 23.375 77.195 23.8466 76.9848 24.4432C76.7803 25.0398 76.678 25.7188 76.678 26.4801C76.678 27.2415 76.7803 27.9205 76.9848 28.517C77.195 29.1136 77.5047 29.5852 77.9138 29.9318C78.3286 30.2727 78.8399 30.4432 79.4479 30.4432ZM94.3496 33.2557C93.0257 33.2557 91.8808 32.9744 90.9149 32.4119C89.9547 31.8437 89.2132 31.054 88.6905 30.0426C88.1678 29.0256 87.9064 27.8466 87.9064 26.5057C87.9064 25.1534 88.1678 23.9716 88.6905 22.9602C89.2132 21.9432 89.9547 21.1534 90.9149 20.5909C91.8808 20.0227 93.0257 19.7386 94.3496 19.7386C95.6734 19.7386 96.8155 20.0227 97.7757 20.5909C98.7416 21.1534 99.4859 21.9432 100.009 22.9602C100.531 23.9716 100.793 25.1534 100.793 26.5057C100.793 27.8466 100.531 29.0256 100.009 30.0426C99.4859 31.054 98.7416 31.8437 97.7757 32.4119C96.8155 32.9744 95.6734 33.2557 94.3496 33.2557ZM94.3666 30.4432C94.9689 30.4432 95.4717 30.2727 95.8751 29.9318C96.2786 29.5852 96.5825 29.1136 96.7871 28.517C96.9973 27.9205 97.1024 27.2415 97.1024 26.4801C97.1024 25.7188 96.9973 25.0398 96.7871 24.4432C96.5825 23.8466 96.2786 23.375 95.8751 23.0284C95.4717 22.6818 94.9689 22.5085 94.3666 22.5085C93.7587 22.5085 93.2473 22.6818 92.8325 23.0284C92.4234 23.375 92.1138 23.8466 91.9036 24.4432C91.699 25.0398 91.5967 25.7188 91.5967 26.4801C91.5967 27.2415 91.699 27.9205 91.9036 28.517C92.1138 29.1136 92.4234 29.5852 92.8325 29.9318C93.2473 30.2727 93.7587 30.4432 94.3666 30.4432ZM106.643 29.233L106.652 24.8778H107.18L111.373 19.9091H115.541L109.908 26.4886H109.047L106.643 29.233ZM103.354 33V15.5455H106.984V33H103.354ZM111.535 33L107.683 27.2983L110.104 24.733L115.788 33H111.535ZM121.255 33.2472C120.42 33.2472 119.676 33.1023 119.022 32.8125C118.369 32.517 117.852 32.0824 117.471 31.5085C117.096 30.929 116.909 30.2074 116.909 29.3438C116.909 28.6165 117.042 28.0057 117.309 27.5114C117.576 27.017 117.94 26.6193 118.4 26.3182C118.86 26.017 119.383 25.7898 119.968 25.6364C120.559 25.483 121.179 25.375 121.826 25.3125C122.588 25.233 123.201 25.1591 123.667 25.0909C124.133 25.017 124.471 24.9091 124.681 24.767C124.892 24.625 124.997 24.4148 124.997 24.1364V24.0852C124.997 23.5455 124.826 23.1278 124.485 22.8324C124.15 22.5369 123.673 22.3892 123.054 22.3892C122.4 22.3892 121.88 22.5341 121.494 22.8239C121.108 23.108 120.852 23.4659 120.727 23.8977L117.369 23.625C117.539 22.8295 117.875 22.142 118.375 21.5625C118.875 20.9773 119.519 20.5284 120.309 20.2159C121.105 19.8977 122.025 19.7386 123.071 19.7386C123.798 19.7386 124.494 19.8239 125.159 19.9943C125.829 20.1648 126.423 20.429 126.94 20.7869C127.463 21.1449 127.875 21.6051 128.176 22.1676C128.477 22.7244 128.627 23.392 128.627 24.1705V33H125.184V31.1847H125.082C124.872 31.5938 124.59 31.9545 124.238 32.267C123.886 32.5739 123.463 32.8153 122.968 32.9915C122.474 33.1619 121.903 33.2472 121.255 33.2472ZM122.295 30.7415C122.829 30.7415 123.301 30.6364 123.71 30.4261C124.119 30.2102 124.44 29.9205 124.673 29.5568C124.906 29.1932 125.022 28.7812 125.022 28.321V26.9318C124.909 27.0057 124.752 27.0739 124.554 27.1364C124.36 27.1932 124.142 27.2472 123.897 27.2983C123.653 27.3437 123.409 27.3864 123.164 27.4261C122.92 27.4602 122.698 27.4915 122.5 27.5199C122.073 27.5824 121.701 27.6818 121.383 27.8182C121.065 27.9545 120.818 28.1392 120.642 28.3722C120.465 28.5994 120.377 28.8835 120.377 29.2244C120.377 29.7188 120.556 30.0966 120.914 30.358C121.278 30.6136 121.738 30.7415 122.295 30.7415ZM147.113 21.6562H143.38C143.312 21.1733 143.173 20.7443 142.962 20.3693C142.752 19.9886 142.482 19.6648 142.153 19.3977C141.823 19.1307 141.442 18.9261 141.011 18.7841C140.585 18.642 140.121 18.571 139.621 18.571C138.718 18.571 137.931 18.7955 137.261 19.2443C136.59 19.6875 136.07 20.3352 135.701 21.1875C135.332 22.0341 135.147 23.0625 135.147 24.2727C135.147 25.517 135.332 26.5625 135.701 27.4091C136.076 28.2557 136.599 28.8949 137.269 29.3267C137.94 29.7585 138.715 29.9744 139.596 29.9744C140.09 29.9744 140.548 29.9091 140.968 29.7784C141.394 29.6477 141.772 29.4574 142.102 29.2074C142.431 28.9517 142.704 28.642 142.92 28.2784C143.141 27.9148 143.295 27.5 143.38 27.0341L147.113 27.0511C147.016 27.8523 146.775 28.625 146.388 29.3693C146.008 30.108 145.494 30.7699 144.846 31.3551C144.204 31.9347 143.437 32.3949 142.545 32.7358C141.658 33.071 140.656 33.2386 139.536 33.2386C137.979 33.2386 136.587 32.8864 135.36 32.1818C134.138 31.4773 133.173 30.4574 132.462 29.1222C131.758 27.7869 131.406 26.1705 131.406 24.2727C131.406 22.3693 131.763 20.75 132.479 19.4148C133.195 18.0795 134.167 17.0625 135.394 16.3636C136.621 15.6591 138.002 15.3068 139.536 15.3068C140.548 15.3068 141.485 15.4489 142.349 15.733C143.218 16.017 143.988 16.4318 144.658 16.9773C145.329 17.517 145.874 18.179 146.295 18.9631C146.721 19.7472 146.994 20.6449 147.113 21.6562ZM149.891 33V19.9091H153.411V22.1932H153.547C153.786 21.3807 154.187 20.767 154.749 20.3523C155.312 19.9318 155.959 19.7216 156.692 19.7216C156.874 19.7216 157.07 19.733 157.28 19.7557C157.49 19.7784 157.675 19.8097 157.834 19.8494V23.071C157.664 23.0199 157.428 22.9744 157.127 22.9347C156.826 22.8949 156.55 22.875 156.3 22.875C155.766 22.875 155.289 22.9915 154.868 23.2244C154.454 23.4517 154.124 23.7699 153.88 24.179C153.641 24.5881 153.522 25.0597 153.522 25.5938V33H149.891ZM159.911 33V19.9091H163.542V33H159.911ZM161.735 18.2216C161.195 18.2216 160.732 18.0426 160.346 17.6847C159.965 17.321 159.775 16.8864 159.775 16.3807C159.775 15.8807 159.965 15.4517 160.346 15.0938C160.732 14.7301 161.195 14.5483 161.735 14.5483C162.275 14.5483 162.735 14.7301 163.116 15.0938C163.502 15.4517 163.695 15.8807 163.695 16.3807C163.695 16.8864 163.502 17.321 163.116 17.6847C162.735 18.0426 162.275 18.2216 161.735 18.2216ZM166.719 33V15.5455H170.349V22.108H170.46C170.619 21.7557 170.849 21.3977 171.15 21.0341C171.457 20.6648 171.855 20.358 172.344 20.1136C172.838 19.8636 173.452 19.7386 174.185 19.7386C175.139 19.7386 176.02 19.9886 176.827 20.4886C177.633 20.983 178.278 21.7301 178.761 22.7301C179.244 23.7244 179.486 24.9716 179.486 26.4716C179.486 27.9318 179.25 29.1648 178.778 30.1705C178.312 31.1705 177.676 31.929 176.869 32.446C176.068 32.9574 175.17 33.2131 174.176 33.2131C173.471 33.2131 172.872 33.0966 172.378 32.8636C171.889 32.6307 171.488 32.3381 171.176 31.9858C170.863 31.6278 170.625 31.267 170.46 30.9034H170.298V33H166.719ZM170.273 26.4545C170.273 27.233 170.381 27.9119 170.596 28.4915C170.812 29.071 171.125 29.5227 171.534 29.8466C171.943 30.1648 172.44 30.3239 173.025 30.3239C173.616 30.3239 174.116 30.1619 174.525 29.8381C174.935 29.5085 175.244 29.054 175.454 28.4744C175.67 27.8892 175.778 27.2159 175.778 26.4545C175.778 25.6989 175.673 25.0341 175.463 24.4602C175.253 23.8864 174.943 23.4375 174.534 23.1136C174.125 22.7898 173.622 22.6278 173.025 22.6278C172.435 22.6278 171.935 22.7841 171.525 23.0966C171.122 23.4091 170.812 23.8523 170.596 24.4261C170.381 25 170.273 25.6761 170.273 26.4545Z" fill="#373F41"/>
<defs>
<clipPath id="clip0_637_9037">
<rect width="15.9711" height="4.19279" fill="white" transform="translate(16.564 6)"/>
</clipPath>
</defs>
</svg>
