<svg width="536" height="412" viewBox="0 0 536 412" fill="none" xmlns="http://www.w3.org/2000/svg">
<g clip-path="url(#clip0_513_53731)">
<path opacity="0.5" d="M268 412.002C415.737 412.002 535.501 327.934 535.501 224.232C535.501 120.529 415.737 36.4609 268 36.4609C120.264 36.4609 0.5 120.529 0.5 224.232C0.5 327.934 120.264 412.002 268 412.002Z" fill="#F5F5F5"/>
<path d="M179.643 106.304C179.494 106.304 179.348 106.275 179.22 106.22C179.093 106.165 178.989 106.087 178.921 105.994C178.852 105.901 178.822 105.796 178.832 105.692C178.843 105.587 178.894 105.487 178.98 105.401C179.13 105.251 193.856 90.3078 177.417 76.6848C174.507 74.2605 170.877 72.3123 166.781 70.9768C162.685 69.6414 158.223 68.9509 153.707 68.9539H153.49C155.051 72.7607 154.772 76.1454 152.562 78.742C151.62 79.9154 150.23 80.8809 148.548 81.5296C146.867 82.1783 144.961 82.4846 143.044 82.4139C141.458 82.3228 139.945 81.9089 138.689 81.2229C137.433 80.537 136.489 79.6089 135.974 78.5522C134.166 75.2418 136.055 72.032 141.034 69.9633C144.189 68.7422 147.695 68.0346 151.292 67.8929C150.122 65.715 148.6 63.6383 146.757 61.7034C140.822 55.34 130.003 50.9355 117.075 49.6183C106.12 48.5019 95.621 49.8162 90.324 52.9653C90.1592 53.0634 89.9455 53.1114 89.7302 53.0989C89.5148 53.0864 89.3153 53.0144 89.1756 52.8987C89.0359 52.7829 88.9674 52.633 88.9852 52.4818C89.003 52.3306 89.1056 52.1906 89.2705 52.0925C94.9081 48.741 105.913 47.3243 117.309 48.4864C130.699 49.8505 141.929 54.4398 148.121 61.0771C150.129 63.1819 151.762 65.4512 152.984 67.8346C157.855 67.7525 162.69 68.4385 167.133 69.842C171.576 71.2456 175.514 73.3311 178.656 75.9447C195.925 90.254 180.464 105.906 180.306 106.062C180.231 106.137 180.131 106.198 180.016 106.239C179.901 106.281 179.773 106.304 179.643 106.304ZM151.82 68.9979C148.333 69.1016 144.926 69.769 141.866 70.9482C137.567 72.7344 135.975 75.3567 137.496 78.1432C137.908 78.9971 138.666 79.7481 139.677 80.3044C140.688 80.8607 141.907 81.198 143.187 81.2752C144.798 81.3257 146.397 81.0608 147.806 80.5099C149.215 79.959 150.378 79.144 151.165 78.1558C153.197 75.7708 153.383 72.6011 151.82 68.9979Z" fill="#8EA396"/>
<path d="M76.2632 62.1773C74.8801 62.4681 73.3899 62.3685 72.1099 61.8995C70.8299 61.4306 69.8612 60.6295 69.4101 59.6667C68.9591 58.7039 69.0612 57.6556 69.6949 56.7449C70.3285 55.8342 71.4436 55.1331 72.8027 54.7909C74.1617 54.4487 75.6574 54.4924 76.9712 54.9127C78.285 55.3331 79.3132 56.0968 79.8368 57.0413C80.3604 57.9858 80.3381 59.0365 79.7746 59.9696C79.2111 60.9027 78.1509 61.6446 76.8197 62.0372C76.6379 62.0908 76.4521 62.1375 76.2632 62.1773ZM73.5541 55.8191C73.422 55.8473 73.292 55.8801 73.1646 55.9174C72.2261 56.1947 71.4789 56.7183 71.0821 57.3765C70.6854 58.0348 70.6704 58.7758 71.0404 59.4417C71.4105 60.1076 72.1362 60.6458 73.0632 60.9416C73.9901 61.2375 75.045 61.2676 76.0031 61.0256C76.9612 60.7836 77.7469 60.2886 78.1927 59.646C78.6386 59.0034 78.7095 58.264 78.3902 57.5853C78.071 56.9066 77.3868 56.3421 76.4835 56.0122C75.5802 55.6823 74.5291 55.613 73.5541 55.8191Z" fill="#8EA396"/>
<path d="M76.253 53.2103C74.9432 53.4846 73.5352 53.4094 72.2996 52.9991C71.064 52.5888 70.0881 51.8725 69.5594 50.9877C69.1354 50.2784 69.0206 49.4967 69.2295 48.7416C69.4384 47.9864 69.9617 47.2917 70.7331 46.7453C71.5044 46.1989 72.4893 45.8254 73.5632 45.6719C74.637 45.5185 75.7516 45.592 76.7659 45.8832C77.7802 46.1744 78.6488 46.6702 79.2616 47.3079C79.8745 47.9456 80.2042 48.6965 80.209 49.4658C80.2139 50.235 79.8936 50.988 79.2888 51.6295C78.684 52.2709 77.8217 52.7721 76.8111 53.0696C76.6286 53.1231 76.4423 53.17 76.253 53.2103ZM73.547 46.8537C73.4137 46.8818 73.2827 46.9149 73.1543 46.9527C72.1983 47.2344 71.4408 47.771 71.0483 48.4447C70.6558 49.1183 70.6604 49.8738 71.0611 50.545C71.3534 51.0343 71.8414 51.4536 72.466 51.7523C73.0907 52.0509 73.8253 52.2162 74.5809 52.228C75.3365 52.2397 76.0808 52.0976 76.7238 51.8187C77.3667 51.5398 77.8808 51.1361 78.2037 50.6565C78.5267 50.1768 78.6448 49.6417 78.5436 49.116C78.4425 48.5902 78.1265 48.0963 77.6339 47.6939C77.1412 47.2916 76.4931 46.998 75.7678 46.8488C75.0425 46.6996 74.2711 46.7017 73.547 46.8537Z" fill="#8EA396"/>
<path d="M74.6719 57.2622C78.6733 57.2622 81.917 55.7415 81.917 53.8655C81.917 51.9895 78.6733 50.4688 74.6719 50.4688C70.6705 50.4688 67.4268 51.9895 67.4268 53.8655C67.4268 55.7415 70.6705 57.2622 74.6719 57.2622Z" fill="#F5FFF1"/>
<path d="M77.877 57.5145C76.8383 57.7304 75.7605 57.839 74.6773 57.8371C70.1576 57.8371 66.6149 56.0984 66.6108 53.873C66.6068 51.6476 70.147 49.9026 74.6659 49.8997C76.636 49.8733 78.5743 50.2509 80.2431 50.9864C80.9924 51.2606 81.6203 51.6736 82.0587 52.1807C82.4971 52.6877 82.7293 53.2694 82.7299 53.8625C82.7306 54.4556 82.4998 55.0375 82.0625 55.545C81.6253 56.0525 80.9983 56.4663 80.2497 56.7413C79.5177 57.0801 78.7181 57.3407 77.877 57.5145ZM71.9624 51.3204C69.7853 51.778 68.2412 52.7652 68.2429 53.8747C68.2429 55.4064 71.19 56.6978 74.6757 56.6961C76.324 56.7204 77.9466 56.4069 79.3452 55.7941C79.8699 55.6245 80.3143 55.3528 80.6256 55.0112C80.9369 54.6696 81.1021 54.2725 81.1016 53.867C81.1011 53.4615 80.9349 53.0647 80.6227 52.7235C80.3105 52.3823 79.8655 52.1111 79.3403 51.9421C77.9404 51.3313 76.3171 51.02 74.6691 51.0465C73.7527 51.0452 72.841 51.1375 71.9624 51.3204Z" fill="#8EA396"/>
<path d="M76.4494 57.1488L76.2783 50.5435L73.9382 50.4766L73.7744 57.226L76.4494 57.1488Z" fill="#8EA396"/>
<path d="M65.06 55.3001C65.4731 55.3001 65.808 55.065 65.808 54.775C65.808 54.4851 65.4731 54.25 65.06 54.25C64.6469 54.25 64.312 54.4851 64.312 54.775C64.312 55.065 64.6469 55.3001 65.06 55.3001Z" fill="#8EA396"/>
<path d="M65.6445 52.4876C66.0576 52.4876 66.3924 52.2525 66.3924 51.9625C66.3924 51.6726 66.0576 51.4375 65.6445 51.4375C65.2314 51.4375 64.8965 51.6726 64.8965 51.9625C64.8965 52.2525 65.2314 52.4876 65.6445 52.4876Z" fill="#8EA396"/>
<path d="M313.906 75.9341C313.731 75.9341 313.562 75.8948 313.421 75.822C313.281 75.7492 313.178 75.6468 313.127 75.5297C310.424 68.4456 309.703 61.0608 311.004 53.784C313.11 43.146 321.467 29.1843 349.323 23.0709C353.243 22.1863 357.263 21.5393 361.34 21.1372C362.652 15.3852 367.645 9.14015 378.808 4.83345C405.34 -5.39969 423.262 3.78165 423.439 3.87545C423.612 3.96646 423.726 4.10195 423.757 4.25212C423.787 4.40228 423.732 4.55481 423.602 4.67616C423.472 4.79751 423.279 4.87774 423.066 4.89919C422.852 4.92064 422.634 4.88156 422.461 4.79055C422.292 4.70133 405.165 -4.02704 379.594 5.83663C369.16 9.86137 364.383 15.638 363.025 21.0005C375.311 20.1511 381.195 23.028 383.835 25.2008C385.47 26.5072 386.521 28.1223 386.857 29.845C387.193 31.5676 386.799 33.3216 385.725 34.8883C384.875 36.154 383.499 37.2092 381.777 37.9147C380.056 38.6201 378.07 38.9427 376.082 38.8398C369.22 38.5573 363.542 34.5057 361.618 28.5175C360.982 26.4904 360.813 24.405 361.117 22.3405C357.283 22.7272 353.501 23.3377 349.81 24.1656C328.1 28.9304 315.589 38.9502 312.617 53.9447C311.343 61.0564 312.045 68.274 314.685 75.198C314.722 75.2835 314.73 75.374 314.709 75.4622C314.687 75.5503 314.637 75.6337 314.561 75.7056C314.485 75.7775 314.386 75.836 314.273 75.8763C314.159 75.9165 314.033 75.9375 313.906 75.9375V75.9341ZM362.779 22.1975C362.439 24.2227 362.584 26.2735 363.207 28.2652C364.968 33.7433 370.059 37.4454 376.177 37.6977C377.845 37.7814 379.509 37.5095 380.953 36.9176C382.396 36.3256 383.551 35.4412 384.266 34.3804C385.197 33.0144 385.535 31.4864 385.239 29.9865C384.942 28.4867 384.024 27.0812 382.598 25.9449C378.788 22.8066 371.835 21.5392 362.779 22.1975Z" fill="#8EA396"/>
<path d="M442.422 9.65395C441.325 9.65244 440.25 9.43312 439.323 9.02131C438.395 8.60949 437.653 8.02197 437.18 7.32654C436.708 6.63112 436.526 5.85615 436.654 5.09109C436.783 4.32602 437.217 3.60204 437.906 3.00272C438.596 2.4034 439.513 1.95316 440.551 1.70397C441.59 1.45479 442.707 1.41681 443.775 1.59443C444.843 1.77205 445.818 2.15803 446.586 2.7078C447.355 3.25758 447.887 3.94874 448.12 4.70153C448.303 5.2982 448.293 5.91598 448.091 6.50965C447.89 7.10332 447.502 7.65784 446.955 8.13263C446.409 8.60742 445.719 8.99044 444.934 9.25367C444.15 9.5169 443.292 9.65366 442.422 9.65395ZM442.434 2.62825C441.568 2.62811 440.722 2.81668 440.015 3.16795C439.307 3.51922 438.772 4.01591 438.484 4.58954C438.195 5.16318 438.167 5.78552 438.403 6.37079C438.64 6.95606 439.129 7.47544 439.804 7.85734C440.478 8.23925 441.305 8.46487 442.17 8.50311C443.035 8.54135 443.896 8.39034 444.633 8.07087C445.371 7.7514 445.949 7.27922 446.288 6.7194C446.627 6.15958 446.711 5.53969 446.527 4.94517C446.33 4.28697 445.815 3.6968 445.069 3.27458C444.323 2.85235 443.392 2.62402 442.434 2.62825Z" fill="#8EA396"/>
<path d="M439.968 18.9893C438.475 18.9891 437.038 18.587 435.955 17.8659C434.871 17.1447 434.222 16.1593 434.142 15.1126C434.062 14.0659 434.557 13.0374 435.525 12.239C436.492 11.4406 437.859 10.9329 439.344 10.8205C440.828 10.7081 442.318 10.9995 443.506 11.6348C444.694 12.2701 445.489 13.2008 445.729 14.2355C445.969 15.2701 445.634 16.3299 444.795 17.1967C443.955 18.0635 442.674 18.6713 441.215 18.895C440.805 18.9577 440.387 18.9894 439.968 18.9893ZM439.989 11.9631C439.688 11.9632 439.387 11.986 439.093 12.0311C438.052 12.1916 437.139 12.626 436.54 13.2449C435.942 13.8638 435.704 14.6201 435.876 15.3583C436.048 16.0965 436.616 16.7604 437.464 17.2134C438.312 17.6664 439.375 17.8741 440.434 17.7936C441.494 17.7132 442.469 17.3508 443.159 16.7809C443.85 16.2111 444.203 15.4773 444.146 14.7303C444.089 13.9834 443.626 13.2802 442.853 12.7655C442.08 12.2507 441.055 11.9636 439.989 11.9631Z" fill="#8EA396"/>
<path d="M448.719 11.3313C449.233 9.3778 446.271 7.35661 442.104 6.81689C437.937 6.27717 434.143 7.4233 433.63 9.37685C433.116 11.3304 436.078 13.3516 440.244 13.8913C444.411 14.431 448.205 13.2849 448.719 11.3313Z" fill="#F5FFF1"/>
<path d="M442.3 14.5844C441.562 14.5836 440.826 14.5357 440.1 14.4414C438.051 14.2028 436.145 13.5496 434.617 12.562C433.948 12.1615 433.434 11.649 433.122 11.072C432.81 10.495 432.71 9.87204 432.832 9.2608C433.029 8.65935 433.439 8.1025 434.024 7.64167C434.609 7.18085 435.35 6.8309 436.178 6.62416C438.117 6.11009 440.219 5.97786 442.256 6.24178C444.294 6.50569 446.19 7.1557 447.74 8.12149C448.408 8.52207 448.923 9.03455 449.235 9.61156C449.547 10.1886 449.646 10.8115 449.525 11.4227C449.327 12.0242 448.917 12.581 448.333 13.0419C447.748 13.5027 447.007 13.8526 446.178 14.0594C444.949 14.4164 443.63 14.595 442.3 14.5844ZM440.05 7.24185C438.943 7.23197 437.845 7.37924 436.822 7.67481C436.243 7.8109 435.721 8.04617 435.304 8.35933C434.888 8.6725 434.588 9.05368 434.434 9.46841C434.367 9.8945 434.452 10.3256 434.683 10.7226C434.913 11.1197 435.281 11.47 435.753 11.7419C437.071 12.5493 438.674 13.093 440.395 13.3159C442.115 13.5388 443.889 13.4327 445.531 13.0087C446.11 12.8727 446.631 12.6374 447.048 12.3242C447.465 12.0111 447.764 11.6298 447.918 11.2151C447.985 10.7891 447.899 10.358 447.669 9.96105C447.438 9.56408 447.071 9.21371 446.599 8.94165C445.302 8.11107 443.688 7.5639 441.955 7.36711C441.326 7.28497 440.689 7.24304 440.05 7.24185Z" fill="#8EA396"/>
<path d="M440.234 6.67188L438.595 13.5729L441.013 13.9595L443.04 6.95384L440.234 6.67188Z" fill="#8EA396"/>
<path d="M450.056 14.0962C450.494 14.0962 450.848 13.8473 450.848 13.5403C450.848 13.2333 450.494 12.9844 450.056 12.9844C449.619 12.9844 449.264 13.2333 449.264 13.5403C449.264 13.8473 449.619 14.0962 450.056 14.0962Z" fill="#8EA396"/>
<path d="M451.436 11.2525C451.874 11.2525 452.228 11.0036 452.228 10.6966C452.228 10.3895 451.874 10.1406 451.436 10.1406C450.999 10.1406 450.645 10.3895 450.645 10.6966C450.645 11.0036 450.999 11.2525 451.436 11.2525Z" fill="#8EA396"/>
<rect x="197.459" y="155" width="143.155" height="138" stroke="#8EA396" stroke-width="2"/>
<path d="M205.532 261.917V235.667L209.62 234.593C248.521 224.36 289.553 224.36 328.454 234.593L332.542 235.667V261.917M205.532 261.917C205.532 261.917 205.532 279.417 196.459 279.417M205.532 261.917H332.542M332.542 261.917C332.542 261.917 332.542 279.417 341.615 279.417M217.628 218.167C217.628 206.564 215.832 195.032 212.293 183.942L211.58 181.708V180.25H326.494V181.708L325.781 183.942C322.244 195.03 320.446 206.566 320.446 218.167M269.037 197.75H235.772V218.167M269.037 197.75V218.167M269.037 197.75H302.302V218.167" stroke="#999999" stroke-width="2"/>
</g>
<defs>
<clipPath id="clip0_513_53731">
<rect width="535" height="412" fill="white" transform="translate(0.5)"/>
</clipPath>
</defs>
</svg>
