<svg width="89" height="32" viewBox="0 0 89 32" fill="none" xmlns="http://www.w3.org/2000/svg">
<path d="M57.896 4.73131L56.8253 9.22327C56.3887 8.76504 55.2559 8.03274 52.4844 8.03274C51.1864 8.02572 49.9079 8.34736 48.7696 8.96736C47.598 9.61383 46.593 10.5213 45.8333 11.6184C45.019 12.7593 44.4247 14.1258 44.0532 15.6804C43.6867 17.2188 43.6369 18.5945 43.9076 19.7688C44.1784 20.9431 44.7636 21.8798 45.6287 22.5169C46.4938 23.1542 47.594 23.4688 48.912 23.4688C51.1664 23.4688 52.857 23.0794 54.235 22.2428C56.4935 20.8834 57.9418 18.2728 59.0766 13.5138L61.8541 1.87695H61.5071C60.6713 1.88509 59.8622 2.17032 59.208 2.6874C58.5538 3.20448 58.0921 3.92382 57.896 4.73131ZM55.3098 15.6804C54.914 17.3362 54.2381 18.6137 53.2997 19.4886C52.3613 20.3635 51.2824 20.7802 50.0642 20.7802C48.8723 20.7802 48.0439 20.3757 47.532 19.5382C47.02 18.7007 46.9437 17.4313 47.3355 15.7907C47.7325 14.1279 48.4144 12.8574 49.3609 11.9987C50.3075 11.14 51.3761 10.7212 52.5791 10.7212C53.7822 10.7212 54.6218 11.1258 55.1307 11.9481C55.6396 12.7705 55.7057 14.0358 55.3098 15.6804Z" fill="#E00861"/>
<path d="M65.0102 11.0264L62.135 23.074H62.484C63.3205 23.0654 64.13 22.7797 64.7845 22.2621C65.439 21.7444 65.9009 21.0246 66.0972 20.2166L68.9724 8.16797H68.6233C67.7867 8.17642 66.977 8.46222 66.3224 8.98008C65.6678 9.49784 65.206 10.2181 65.0102 11.0264Z" fill="#E00861"/>
<path d="M87.477 8.20312C86.5658 8.2124 85.6708 8.4452 84.8718 8.88085C84.0729 9.31653 83.3945 9.94155 82.897 10.7004L77.4865 18.9692L76.1736 11.2567C76.0276 10.4001 75.5799 9.62297 74.9107 9.06399C74.2414 8.50502 73.394 8.20063 72.5197 8.20516H72.1584L74.9177 22.4668L70.8404 28.4071H71.3656C72.2887 28.4036 73.1968 28.1741 74.0094 27.7389C74.8221 27.3036 75.5143 26.6761 76.025 25.9119L87.9747 8.23651L87.9981 8.20312H87.477Z" fill="#E00861"/>
<path d="M23.057 8.83369C22.3975 8.37044 21.4835 8.13477 20.3396 8.13477C19.0307 8.13594 17.748 8.49988 16.6358 9.18567C16.1077 9.50452 15.6188 9.88364 15.1794 10.3155C15.0459 9.89348 14.8177 9.50709 14.5118 9.18567C13.8329 8.48878 12.7927 8.13477 11.4197 8.13477C10.6038 8.13573 9.79528 8.28875 9.03615 8.58588C8.44459 8.81715 7.88669 9.12566 7.37712 9.50328L7.58068 8.7639L7.68246 8.39168H6.98425C5.72526 8.39168 4.56194 9.28477 4.21793 10.5158L0.746279 22.9477L0.644501 23.3229H1.34779C2.62306 23.3229 3.80166 22.4127 4.15076 21.1695L5.85961 15.0451C6.08096 14.2095 6.45718 13.4223 6.96899 12.7238C7.41255 12.1193 7.9836 11.6185 8.64223 11.2562C9.26493 10.9209 9.96246 10.747 10.6706 10.7504C11.5633 10.7504 12.122 10.9679 12.3297 11.3968C12.5007 11.7467 12.6126 12.4902 12.179 14.0448L9.69458 22.9457L9.59282 23.3189H10.2961C11.5724 23.3189 12.751 22.4086 13.1001 21.1645L14.809 15.041C15.0292 14.2057 15.401 13.4173 15.9061 12.7147C16.345 12.1097 16.9151 11.6106 17.5743 11.2541C18.1938 10.9223 18.8867 10.7485 19.5905 10.7484C20.5065 10.7484 21.0704 10.9659 21.278 11.3937C21.449 11.7447 21.562 12.4881 21.1283 14.0428L18.7274 22.6402L18.6439 22.9436L18.5422 23.3169H19.2444C20.5208 23.3169 21.6994 22.4065 22.0474 21.1635L23.9955 14.1843C24.3496 12.918 24.4595 11.8367 24.3242 10.973C24.1725 10.0404 23.7482 9.31916 23.057 8.83369Z" fill="#313131"/>
<path d="M36.6751 8.02233L35.6176 8.10324C34.1928 8.20439 32.9409 8.56649 31.8987 9.17742C31.6923 9.29868 31.4929 9.43103 31.3012 9.57392L31.5282 8.76474L31.6299 8.39252H30.9266C29.6676 8.39252 28.5044 9.28565 28.1604 10.5166L24.6938 22.9434L24.592 23.3167H25.2943C26.5869 23.3167 27.7818 22.3983 28.1339 21.135L29.8997 14.8113C30.2254 13.642 30.8259 12.7044 31.6839 12.0227C32.5419 11.3409 33.6371 10.9253 34.9143 10.8089H34.9194C35.4063 10.7488 35.861 10.5352 36.2169 10.1996C36.5728 9.86396 36.8111 9.42385 36.897 8.94376L36.9926 8.36825L37.0527 7.99805L36.6751 8.02233Z" fill="#313131"/>
</svg>
