<svg width="121" height="121" viewBox="0 0 121 121" fill="none" xmlns="http://www.w3.org/2000/svg">
<rect x="0.0836182" y="0.677734" width="120" height="120" rx="10" fill="#D6D6D6"/>
<path d="M70.6633 36.8247L67.6876 47.4276C67.4381 48.2921 66.9164 49.0544 66.1988 49.6023C65.4813 50.1504 64.6059 50.4551 63.7012 50.4721H63.0399L63.0836 50.2984L63.2146 49.8334L66.8766 36.7751C67.4318 34.8095 67.5004 33.3772 67.0824 32.5339C66.6645 31.6907 65.7537 31.3806 64.2314 31.3806C63.104 31.3814 61.9942 31.6582 60.9999 32.1867C59.9541 32.7492 59.0481 33.5373 58.3486 34.4933C57.5541 35.5893 56.9684 36.8209 56.6205 38.1268L54.0129 47.4276C53.7638 48.2911 53.2429 49.0526 52.5267 49.6006C51.8104 50.1484 50.9364 50.4539 50.0327 50.4721H49.359L49.4089 50.2984L53.2081 36.7813C53.7571 34.8095 53.832 33.3834 53.414 32.5401C52.996 31.6968 52.0914 31.3806 50.6004 31.3806H50.5692C49.4457 31.3811 48.3398 31.658 47.3502 32.1867C46.3058 32.7592 45.399 33.5505 44.6926 34.5057C43.8865 35.595 43.2938 36.8256 42.9459 38.133L40.332 47.4338C40.0846 48.2983 39.5642 49.0609 38.8476 49.6091C38.131 50.1573 37.256 50.462 36.3518 50.4782H35.6843L35.7342 50.3046L41.0369 31.4178C41.2834 30.5658 41.798 29.8147 42.5053 29.2747C43.2126 28.7346 44.0754 28.4339 44.9671 28.4168H45.5909L45.5473 28.5904L45.2665 29.7065L45.042 30.5808L45.7719 30.0475C46.5288 29.4896 47.3576 29.0349 48.2361 28.6958C49.3533 28.26 50.5419 28.033 51.7421 28.0261C53.7571 28.0261 55.2668 28.5346 56.2462 29.5267C56.6778 29.9834 57.0017 30.5298 57.1945 31.1264L57.3442 31.61L57.706 31.2504C58.3636 30.6143 59.092 30.0547 59.877 29.5825C61.531 28.5678 63.4357 28.029 65.3793 28.0261C66.7829 27.9486 68.1766 28.3014 69.3719 29.0368C69.8676 29.393 70.2838 29.8474 70.5941 30.3714C70.9044 30.8954 71.1021 31.4776 71.1748 32.0813C71.3399 33.6806 71.1657 35.2965 70.6633 36.8247Z" fill="#313131"/>
<path d="M90.5824 27.8477V28.0275L90.4389 28.8955C90.3187 29.5605 89.9862 30.1693 89.4906 30.6317C88.9976 31.0925 88.3713 31.3875 87.7002 31.475C85.8461 31.5939 84.0697 32.2588 82.5971 33.3847C81.1749 34.4946 80.1527 36.0327 79.6838 37.7685L76.9888 47.3855C76.7378 48.2644 76.2096 49.04 75.4818 49.5981C74.7541 50.1562 73.8653 50.4674 72.9463 50.4858H72.285L72.3287 50.3122L77.6313 31.4378C77.8726 30.583 78.3846 29.8282 79.0915 29.2854C79.7983 28.7426 80.6623 28.4406 81.5553 28.4243H82.2228L82.1729 28.5917L81.8298 29.8318L81.5803 30.7061L82.3164 30.1605C82.6005 29.9498 82.8963 29.7552 83.2023 29.5776C84.9018 28.6266 86.8004 28.0811 88.7483 27.9841L90.364 27.8477H90.5824Z" fill="#313131"/>
<path d="M53.535 53.8242C52.3299 53.8397 51.1635 54.2495 50.2162 54.99C49.282 55.7339 48.6235 56.7658 48.3446 57.9228L46.7101 64.7434L46.5791 65.3014L46.1799 64.886C45.556 64.2659 43.9216 63.1747 39.773 63.1747H39.7106C37.8013 63.1744 35.9225 63.6497 34.2458 64.5573C32.5052 65.5163 31.0107 66.8616 29.8788 68.4885C28.6005 70.3188 27.6916 72.3783 27.2025 74.5526C26.6631 76.5326 26.5863 78.6089 26.9779 80.6229C27.2921 82.2119 28.1795 83.6319 29.4733 84.6161C30.8834 85.5712 32.5656 86.0496 34.2707 85.9802C37.6519 85.9802 40.1847 85.4035 42.2434 84.1634C45.6184 82.1421 47.7894 78.2357 49.4987 71.0927L53.6723 53.8242H53.535ZM44.3707 74.5278C43.9327 76.7813 42.8319 78.855 41.2079 80.4865C39.8233 81.8126 37.9713 82.5471 36.0487 82.5327C34.1085 82.5327 32.7547 81.8692 31.9125 80.4989C31.0704 79.1286 30.9581 77.1382 31.5757 74.5712C32.1933 72.0042 33.2663 70.0076 34.7636 68.6559C36.1437 67.3472 37.9777 66.6167 39.8853 66.6159C41.8192 66.6159 43.2229 67.2918 44.0526 68.6249C44.8823 69.958 44.9946 71.9484 44.3707 74.5278Z" fill="#E00861"/>
<path d="M64.5511 63.3535L60.2466 81.273C59.9681 82.432 59.3097 83.466 58.3751 84.2121C57.4278 84.9526 56.2613 85.3623 55.0562 85.3778H54.9127L59.2235 67.4645C59.5037 66.3063 60.1618 65.2729 61.095 64.5254C62.0443 63.784 63.213 63.3743 64.4201 63.3598L64.5511 63.3535Z" fill="#E00861"/>
<path d="M93.4351 63.4121L75.4434 89.8264C74.6917 90.9458 73.6739 91.8636 72.4802 92.4988C71.2829 93.1469 69.9443 93.4939 68.5811 93.5095H68.3752L74.2706 84.9713L74.3454 84.8659V84.7419L70.1969 63.4431H70.4028C71.6549 63.447 72.8664 63.8857 73.8277 64.6832C74.7922 65.4821 75.4381 66.5968 75.6493 67.8269L77.6581 79.5459L77.7891 80.3209L78.2258 79.6637L86.4855 67.0642C87.2214 65.9534 88.2209 65.0393 89.3957 64.4025C90.5706 63.7656 91.8849 63.4256 93.223 63.4121H93.4351Z" fill="#E00861"/>
</svg>
