<svg width="61" height="60" viewBox="0 0 61 60" fill="none" xmlns="http://www.w3.org/2000/svg">
<rect x="1" y="0.5" width="59" height="59" rx="29.5" fill="white"/>
<rect x="1" y="0.5" width="59" height="59" rx="29.5" stroke="#787878"/>
<path d="M37.9996 29.7071C37.9996 29.1881 37.9996 28.9286 38.0776 28.6976C38.3041 28.0256 38.9026 27.7661 39.5026 27.4931C40.1746 27.1856 40.5106 27.0326 40.8451 27.0056C41.2231 26.9756 41.6026 27.0566 41.9266 27.2381C42.3556 27.4781 42.6556 27.9371 42.9616 28.3091C44.3761 30.0281 45.0841 30.8876 45.3421 31.8341C45.5521 32.5991 45.5521 33.4001 45.3421 34.1636C44.9656 35.5466 43.7731 36.7046 42.8896 37.7786C42.4381 38.3261 42.2116 38.6006 41.9266 38.7611C41.5971 38.9438 41.2207 39.0248 40.8451 38.9936C40.5106 38.9666 40.1746 38.8136 39.5011 38.5061C38.9011 38.2331 38.3041 37.9736 38.0776 37.3016C37.9996 37.0706 37.9996 36.8111 37.9996 36.2936V29.7071ZM22.9996 29.7071C22.9996 29.0531 22.9816 28.4666 22.4536 28.0076C22.2616 27.8411 22.0066 27.7256 21.4981 27.4931C20.8246 27.1871 20.4886 27.0326 20.1541 27.0056C19.1536 26.9246 18.6151 27.6086 18.0391 28.3106C16.6231 30.0281 15.9151 30.8876 15.6556 31.8356C15.4468 32.598 15.4468 33.4026 15.6556 34.1651C16.0336 35.5466 17.2276 36.7061 18.1096 37.7786C18.6661 38.4536 19.1986 39.0701 20.1541 38.9936C20.4886 38.9666 20.8246 38.8136 21.4981 38.5061C22.0081 38.2751 22.2616 38.1581 22.4536 37.9916C22.9816 37.5326 22.9996 36.9461 22.9996 36.2936V29.7071Z" stroke="#111111" stroke-linecap="round" stroke-linejoin="round"/>
<path d="M42.5 27.75V25.5C42.5 19.701 37.127 15 30.5 15C23.873 15 18.5 19.701 18.5 25.5V27.75M42.5 38.25C42.5 45 36.5 45 30.5 45" stroke="#111111" stroke-linecap="round" stroke-linejoin="round"/>
</svg>
