<svg width="12" height="14" viewBox="0 0 12 14" fill="none" xmlns="http://www.w3.org/2000/svg">
<path d="M7.33366 13.5C7.22766 13.5 7.12236 13.466 7.03369 13.4L4.36702 11.4C4.24169 11.3053 4.16699 11.1573 4.16699 11V8.33333C4.16699 8.2 4.11501 8.074 4.02034 7.97933L0.606364 4.56533C0.323031 4.28133 0.166992 3.90533 0.166992 3.50466V2C0.166992 1.17267 0.840325 0.5 1.66699 0.5H10.3337C11.1603 0.5 11.8337 1.17267 11.8337 2V3.50466C11.8337 3.90533 11.6776 4.28199 11.3943 4.56533L7.98031 7.97933C7.88564 8.074 7.83366 8.19933 7.83366 8.33333V13C7.83366 13.1893 7.72697 13.3627 7.55697 13.4473C7.4863 13.4827 7.40966 13.5 7.33366 13.5ZM5.16699 10.75L6.83366 12V8.33333C6.83366 7.93267 6.9897 7.556 7.27303 7.27266L10.687 3.85866C10.7817 3.764 10.8337 3.63866 10.8337 3.50466V2C10.8337 1.724 10.609 1.5 10.3337 1.5H1.66699C1.39166 1.5 1.16699 1.724 1.16699 2V3.50466C1.16699 3.63799 1.21897 3.764 1.31364 3.85866L4.72762 7.27266C5.01095 7.55666 5.16699 7.93267 5.16699 8.33333V10.75Z" fill="#25314C"/>
</svg>
