<svg width="61" height="60" viewBox="0 0 61 60" fill="none" xmlns="http://www.w3.org/2000/svg">
<rect x="1" y="0.5" width="59" height="59" rx="29.5" fill="white"/>
<rect x="1" y="0.5" width="59" height="59" rx="29.5" stroke="#787878"/>
<path d="M21.5 40.4999H39.5V25.7354L30.5 17.5544L21.5 25.7354V40.4999ZM41 43.4999H20C19.6022 43.4999 19.2206 43.3418 18.9393 43.0605C18.658 42.7792 18.5 42.3977 18.5 41.9999V28.4999H14L29.4905 14.4179C29.7667 14.1666 30.1266 14.0273 30.5 14.0273C30.8734 14.0273 31.2333 14.1666 31.5095 14.4179L47 28.4999H42.5V41.9999C42.5 42.3977 42.342 42.7792 42.0607 43.0605C41.7794 43.3418 41.3978 43.4999 41 43.4999ZM23.75 31.4999H26.75C26.75 32.4944 27.1451 33.4483 27.8483 34.1515C28.5516 34.8548 29.5054 35.2499 30.5 35.2499C31.4946 35.2499 32.4484 34.8548 33.1516 34.1515C33.8549 33.4483 34.25 32.4944 34.25 31.4999H37.25C37.25 33.2901 36.5388 35.007 35.273 36.2729C34.0071 37.5387 32.2902 38.2499 30.5 38.2499C28.7098 38.2499 26.9929 37.5387 25.727 36.2729C24.4612 35.007 23.75 33.2901 23.75 31.4999Z" fill="#111111"/>
</svg>
