<svg width="139" height="41" viewBox="0 0 139 41" fill="none" xmlns="http://www.w3.org/2000/svg">
<path d="M138.227 35.5242C138.227 37.6642 136.458 39.3976 134.269 39.3976H4.73486C2.54721 39.3976 0.771484 37.6642 0.771484 35.5242V4.63571C0.771484 2.49678 2.54721 0.757324 4.73486 0.757324H134.268C136.458 0.757324 138.226 2.49678 138.226 4.63571L138.227 35.5242Z" fill="black"/>
<path d="M133.852 0.804576C136.235 0.804576 138.175 2.69565 138.175 5.01966V35.1363C138.175 37.4603 136.235 39.3514 133.852 39.3514H5.14815C2.76456 39.3514 0.82499 37.4603 0.82499 35.1363V5.01966C0.82499 2.69565 2.76456 0.804576 5.14815 0.804576H133.852ZM133.852 0.000211172H5.14815C2.31795 0.000211172 0 2.26022 0 5.01966V35.1363C0 37.8958 2.31795 40.1558 5.14815 40.1558H133.852C136.682 40.1558 139 37.8958 139 35.1363V5.01966C139 2.26022 136.682 0.000211172 133.852 0.000211172Z" fill="#A6A6A6"/>
<path d="M31.0197 19.861C30.9898 16.6254 33.7369 15.0513 33.8625 14.9781C32.3067 12.7665 29.8953 12.4643 29.0479 12.4402C27.0227 12.2324 25.0581 13.6218 24.0264 13.6218C22.9742 13.6218 21.3854 12.4603 19.6732 12.4944C17.4698 12.5276 15.4084 13.7714 14.2779 15.7029C11.9448 19.6411 13.6848 25.4285 15.9202 28.6119C17.0383 30.1709 18.3449 31.9116 20.0552 31.8504C21.7283 31.7832 22.3533 30.8104 24.3724 30.8104C26.373 30.8104 26.9599 31.8504 28.704 31.8113C30.4997 31.7832 31.6303 30.2452 32.7093 28.6721C34.0015 26.8852 34.5204 25.1254 34.541 25.035C34.4988 25.021 31.0537 23.739 31.0197 19.861Z" fill="white"/>
<path d="M27.7249 10.3461C28.6248 9.24886 29.2405 7.75608 29.0696 6.24121C27.7671 6.29743 26.1382 7.11961 25.2002 8.19277C24.3703 9.13843 23.629 10.6884 23.8205 12.1461C25.2836 12.2525 26.7858 11.4263 27.7249 10.3461Z" fill="white"/>
<path d="M55.2339 31.6264H52.8956L51.6148 27.7022H47.1626L45.9425 31.6264H43.666L48.0769 18.2666H50.8013L55.2339 31.6264ZM51.2286 26.0558L50.0703 22.5673C49.9478 22.2109 49.7182 21.3716 49.3794 20.0505H49.3382C49.2034 20.6187 48.9861 21.458 48.6875 22.5673L47.5498 26.0558H51.2286Z" fill="white"/>
<path d="M66.5773 26.6914C66.5773 28.3297 66.1232 29.6247 65.2151 30.5754C64.4017 31.4217 63.3916 31.8443 62.1859 31.8443C60.8845 31.8443 59.9496 31.3886 59.3802 30.477H59.339V35.5517H57.1438V25.1645C57.1438 24.1345 57.116 23.0774 57.0625 21.9932H58.9931L59.1156 23.5201H59.1568C59.8888 22.3696 60.9998 21.7954 62.4907 21.7954C63.6562 21.7954 64.6292 22.2441 65.4076 23.1426C66.1881 24.0421 66.5773 25.2247 66.5773 26.6914ZM64.341 26.7697C64.341 25.832 64.1247 25.0591 63.6902 24.4507C63.2156 23.8162 62.5782 23.499 61.7792 23.499C61.2376 23.499 60.7455 23.6757 60.3058 24.024C59.8651 24.3754 59.5769 24.8342 59.442 25.4024C59.374 25.6674 59.34 25.8842 59.34 26.0549V27.6611C59.34 28.3618 59.5604 28.9531 60.0011 29.436C60.4417 29.9189 61.0142 30.1598 61.7185 30.1598C62.5453 30.1598 63.1888 29.8486 63.649 29.2282C64.1103 28.6068 64.341 27.7876 64.341 26.7697Z" fill="white"/>
<path d="M77.9415 26.6914C77.9415 28.3297 77.4874 29.6247 76.5783 30.5754C75.7659 31.4217 74.7558 31.8443 73.5501 31.8443C72.2487 31.8443 71.3138 31.3886 70.7454 30.477H70.7042V35.5517H68.5091V25.1645C68.5091 24.1345 68.4813 23.0774 68.4277 21.9932H70.3583L70.4808 23.5201H70.522C71.253 22.3696 72.364 21.7954 73.8559 21.7954C75.0205 21.7954 75.9935 22.2441 76.7739 23.1426C77.5513 24.0421 77.9415 25.2247 77.9415 26.6914ZM75.7052 26.7697C75.7052 25.832 75.4879 25.0591 75.0534 24.4507C74.5787 23.8162 73.9435 23.499 73.1434 23.499C72.6008 23.499 72.1097 23.6757 71.669 24.024C71.2283 24.3754 70.9411 24.8342 70.8062 25.4024C70.7393 25.6674 70.7042 25.8842 70.7042 26.0549V27.6611C70.7042 28.3618 70.9246 28.9531 71.3632 29.436C71.8039 29.9179 72.3764 30.1598 73.0827 30.1598C73.9095 30.1598 74.553 29.8486 75.0133 29.2282C75.4745 28.6068 75.7052 27.7876 75.7052 26.7697Z" fill="white"/>
<path d="M90.6471 27.8798C90.6471 29.0162 90.2425 29.9408 89.4301 30.6546C88.5374 31.4346 87.2946 31.8241 85.6977 31.8241C84.2233 31.8241 83.0412 31.547 82.1465 30.9919L82.6551 29.2079C83.6189 29.7761 84.6763 30.0613 85.8284 30.0613C86.6552 30.0613 87.2988 29.8785 87.7611 29.5151C88.2213 29.1517 88.4509 28.6638 88.4509 28.0555C88.4509 27.5134 88.2615 27.0566 87.8815 26.6862C87.5036 26.3157 86.8725 25.9714 85.9911 25.6532C83.5921 24.7808 82.3936 23.5028 82.3936 21.8223C82.3936 20.7241 82.8137 19.8236 83.6549 19.1229C84.493 18.4212 85.6112 18.0708 87.0094 18.0708C88.2563 18.0708 89.2921 18.2826 90.1189 18.7053L89.5701 20.45C88.7979 20.0404 87.9248 19.8356 86.9476 19.8356C86.1754 19.8356 85.5721 20.0214 85.1396 20.3908C84.7741 20.7211 84.5908 21.1236 84.5908 21.6005C84.5908 22.1285 84.7998 22.5652 85.2199 22.9085C85.5854 23.2258 86.2496 23.5691 87.2133 23.9395C88.3922 24.4023 89.2581 24.9434 89.8152 25.5638C90.3701 26.1822 90.6471 26.9562 90.6471 27.8798Z" fill="white"/>
<path d="M97.9058 23.5993H95.4862V28.2764C95.4862 29.466 95.9125 30.0603 96.7671 30.0603C97.1593 30.0603 97.4847 30.0272 97.7421 29.9609L97.8029 31.5862C97.3704 31.7438 96.801 31.8232 96.0957 31.8232C95.2288 31.8232 94.5513 31.5652 94.0622 31.0502C93.5752 30.5342 93.3301 29.6688 93.3301 28.4531V23.5973H91.8887V21.9911H93.3301V20.2272L95.4862 19.5928V21.9911H97.9058V23.5993Z" fill="white"/>
<path d="M108.822 26.7305C108.822 28.2112 108.388 29.4269 107.521 30.3776C106.611 31.3564 105.405 31.8443 103.9 31.8443C102.451 31.8443 101.296 31.3755 100.436 30.4379C99.5749 29.5002 99.1445 28.3166 99.1445 26.8901C99.1445 25.3973 99.5873 24.1746 100.476 23.2239C101.362 22.2722 102.559 21.7964 104.063 21.7964C105.513 21.7964 106.679 22.2652 107.56 23.2038C108.402 24.1144 108.822 25.2899 108.822 26.7305ZM106.544 26.7998C106.544 25.9113 106.35 25.1494 105.956 24.5139C105.495 23.7449 104.837 23.3614 103.985 23.3614C103.102 23.3614 102.432 23.7459 101.972 24.5139C101.578 25.1504 101.383 25.9244 101.383 26.8399C101.383 27.7284 101.578 28.4903 101.972 29.1248C102.447 29.8938 103.11 30.2772 103.965 30.2772C104.803 30.2772 105.461 29.8857 105.936 29.1047C106.341 28.4572 106.544 27.6872 106.544 26.7998Z" fill="white"/>
<path d="M115.958 23.8755C115.741 23.8363 115.509 23.8162 115.266 23.8162C114.494 23.8162 113.897 24.1003 113.477 24.6695C113.111 25.1715 112.928 25.8059 112.928 26.5719V31.6265H110.734L110.754 25.0269C110.754 23.9166 110.726 22.9057 110.672 21.9942H112.584L112.664 23.8373H112.725C112.957 23.2039 113.322 22.6939 113.823 22.3114C114.312 21.9671 114.84 21.7954 115.409 21.7954C115.612 21.7954 115.795 21.8095 115.958 21.8346V23.8755Z" fill="white"/>
<path d="M125.775 26.3541C125.775 26.7376 125.749 27.0608 125.695 27.3248H119.109C119.135 28.2765 119.453 29.0043 120.064 29.5063C120.619 29.955 121.337 30.1799 122.218 30.1799C123.194 30.1799 124.083 30.0283 124.883 29.7241L125.227 31.2099C124.292 31.6074 123.188 31.8052 121.915 31.8052C120.383 31.8052 119.18 31.3655 118.305 30.4871C117.432 29.6087 116.994 28.4291 116.994 26.9494C116.994 25.4968 117.401 24.2871 118.215 23.3223C119.068 22.2923 120.22 21.7773 121.67 21.7773C123.094 21.7773 124.172 22.2923 124.904 23.3223C125.483 24.1405 125.775 25.1524 125.775 26.3541ZM123.682 25.7989C123.696 25.1645 123.553 24.6163 123.255 24.1535C122.875 23.5582 122.292 23.2611 121.506 23.2611C120.788 23.2611 120.205 23.5512 119.759 24.1335C119.393 24.5963 119.176 25.1514 119.109 25.7979H123.682V25.7989Z" fill="white"/>
<path d="M50.5039 10.0479C50.5039 11.2294 50.1405 12.1189 49.4146 12.7162C48.7422 13.2673 47.7867 13.5434 46.5491 13.5434C45.9355 13.5434 45.4104 13.5173 44.9707 13.4651V7.00909C45.5442 6.91874 46.162 6.87256 46.8292 6.87256C48.0081 6.87256 48.8967 7.12253 49.4959 7.62246C50.1672 8.18765 50.5039 8.99578 50.5039 10.0479ZM49.3662 10.077C49.3662 9.311 49.1582 8.72373 48.7422 8.31414C48.3263 7.90556 47.7188 7.70077 46.9188 7.70077C46.579 7.70077 46.2897 7.72285 46.0498 7.76903V12.677C46.1826 12.6971 46.4256 12.7062 46.7787 12.7062C47.6045 12.7062 48.2418 12.4823 48.6908 12.0346C49.1397 11.5868 49.3662 10.9343 49.3662 10.077Z" fill="white"/>
<path d="M56.537 11.0796C56.537 11.8075 56.3239 12.4038 55.8976 12.8716C55.4507 13.3524 54.8587 13.5924 54.1194 13.5924C53.4069 13.5924 52.8396 13.3625 52.4164 12.9007C51.9943 12.4399 51.7832 11.8587 51.7832 11.1579C51.7832 10.4251 52.0005 9.82377 52.437 9.35696C52.8736 8.89016 53.4605 8.65625 54.1997 8.65625C54.9123 8.65625 55.4847 8.88614 55.9182 9.34693C56.3301 9.79466 56.537 10.3729 56.537 11.0796ZM55.4178 11.1138C55.4178 10.6771 55.321 10.3026 55.1285 9.99042C54.902 9.61296 54.5797 9.42422 54.1606 9.42422C53.7271 9.42422 53.3977 9.61296 53.1711 9.99042C52.9776 10.3026 52.8818 10.6831 52.8818 11.1328C52.8818 11.5695 52.9786 11.944 53.1711 12.2562C53.4049 12.6337 53.7302 12.8224 54.1503 12.8224C54.5622 12.8224 54.8855 12.6306 55.1182 12.2462C55.3179 11.9279 55.4178 11.5505 55.4178 11.1138Z" fill="white"/>
<path d="M64.6242 8.75293L63.1055 13.4853H62.117L61.4879 11.4303C61.3283 10.9173 61.1986 10.4073 61.0977 9.90138H61.0781C60.9844 10.4214 60.8547 10.9304 60.6879 11.4303L60.0197 13.4853H59.0199L57.5918 8.75293H58.7007L59.2495 11.0026C59.3823 11.5347 59.4915 12.0417 59.579 12.5215H59.5985C59.6789 12.126 59.8117 11.622 59.9991 11.0127L60.6879 8.75393H61.5672L62.2272 10.9645C62.3868 11.5036 62.5165 12.0226 62.6164 12.5225H62.6462C62.7193 12.0356 62.8295 11.5166 62.9757 10.9645L63.5647 8.75393H64.6242V8.75293Z" fill="white"/>
<path d="M70.2193 13.485H69.1402V10.7745C69.1402 9.9393 68.8148 9.52168 68.1621 9.52168C67.8418 9.52168 67.5834 9.63613 67.3826 9.86602C67.1839 10.0959 67.083 10.367 67.083 10.6772V13.484H66.004V10.1049C66.004 9.68933 65.9906 9.23859 65.9648 8.7507H66.9131L66.9636 9.49056H66.9934C67.1191 9.26067 67.3064 9.07094 67.5525 8.91935C67.8449 8.74267 68.1724 8.65332 68.5307 8.65332C68.9837 8.65332 69.3606 8.79587 69.6602 9.08198C70.0329 9.43234 70.2193 9.95537 70.2193 10.6501V13.485Z" fill="white"/>
<path d="M73.1952 13.4853H72.1172V6.58154H73.1952V13.4853Z" fill="white"/>
<path d="M79.5468 11.0796C79.5468 11.8075 79.3336 12.4038 78.9074 12.8716C78.4605 13.3524 77.8674 13.5924 77.1292 13.5924C76.4157 13.5924 75.8483 13.3625 75.4262 12.9007C75.004 12.4399 74.793 11.8587 74.793 11.1579C74.793 10.4251 75.0102 9.82377 75.4468 9.35696C75.8833 8.89016 76.4702 8.65625 77.2085 8.65625C77.922 8.65625 78.4935 8.88614 78.928 9.34693C79.3398 9.79466 79.5468 10.3729 79.5468 11.0796ZM78.4265 11.1138C78.4265 10.6771 78.3297 10.3026 78.1372 9.99042C77.9117 9.61296 77.5884 9.42422 77.1704 9.42422C76.7359 9.42422 76.4064 9.61296 76.1809 9.99042C75.9873 10.3026 75.8916 10.6831 75.8916 11.1328C75.8916 11.5695 75.9884 11.944 76.1809 12.2562C76.4146 12.6337 76.74 12.8224 77.1601 12.8224C77.5719 12.8224 77.8942 12.6306 78.1269 12.2462C78.3277 11.9279 78.4265 11.5505 78.4265 11.1138Z" fill="white"/>
<path d="M84.7698 13.485H83.8009L83.7206 12.9398H83.6908C83.3592 13.3745 82.8866 13.5924 82.273 13.5924C81.8148 13.5924 81.4441 13.4488 81.1651 13.1637C80.9118 12.9047 80.7852 12.5825 80.7852 12.2C80.7852 11.6217 81.0323 11.181 81.5296 10.8758C82.0259 10.5707 82.724 10.4211 83.6228 10.4281V10.3398C83.6228 9.71636 83.2872 9.40515 82.6148 9.40515C82.136 9.40515 81.7139 9.52261 81.3494 9.75551L81.1301 9.06483C81.5811 8.79278 82.1381 8.65625 82.795 8.65625C84.0635 8.65625 84.6998 9.30878 84.6998 10.6138V12.3566C84.6998 12.8294 84.7235 13.2059 84.7698 13.485ZM83.6496 11.8587V11.1288C82.4593 11.1088 81.8642 11.427 81.8642 12.0825C81.8642 12.3295 81.9322 12.5142 82.0712 12.6377C82.2102 12.7612 82.3873 12.8224 82.5983 12.8224C82.8351 12.8224 83.0565 12.7491 83.2583 12.6035C83.4612 12.457 83.5857 12.2713 83.6321 12.0434C83.6434 11.9922 83.6496 11.9299 83.6496 11.8587Z" fill="white"/>
<path d="M90.9009 13.4853H89.9434L89.8929 12.7253H89.863C89.5572 13.3036 89.0362 13.5927 88.3042 13.5927C87.7194 13.5927 87.2323 13.3688 86.8462 12.9211C86.4601 12.4734 86.2676 11.8921 86.2676 11.1784C86.2676 10.4124 86.4766 9.79198 86.8967 9.31814C87.3034 8.87643 87.8017 8.65558 88.3948 8.65558C89.0465 8.65558 89.5027 8.86941 89.7621 9.29807H89.7827V6.58154H90.8628V12.2103C90.8628 12.6711 90.8752 13.0958 90.9009 13.4853ZM89.7827 11.4896V10.7005C89.7827 10.564 89.7724 10.4535 89.7529 10.3692C89.6921 10.1162 89.5614 9.90341 89.3626 9.73175C89.1619 9.56008 88.9199 9.47375 88.6409 9.47375C88.2383 9.47375 87.9232 9.62935 87.6915 9.94156C87.4619 10.2538 87.3456 10.6523 87.3456 11.1392C87.3456 11.607 87.4558 11.9865 87.6771 12.2786C87.9109 12.5898 88.2259 12.7454 88.6203 12.7454C88.9745 12.7454 89.2576 12.6159 89.4728 12.3559C89.6808 12.116 89.7827 11.8269 89.7827 11.4896Z" fill="white"/>
<path d="M100.131 11.0796C100.131 11.8075 99.9176 12.4038 99.4914 12.8716C99.0445 13.3524 98.4535 13.5924 97.7132 13.5924C97.0017 13.5924 96.4344 13.3625 96.0102 12.9007C95.588 12.4399 95.377 11.8587 95.377 11.1579C95.377 10.4251 95.5942 9.82377 96.0308 9.35696C96.4673 8.89016 97.0542 8.65625 97.7945 8.65625C98.506 8.65625 99.0795 8.88614 99.5119 9.34693C99.9238 9.79466 100.131 10.3729 100.131 11.0796ZM99.0126 11.1138C99.0126 10.6771 98.9158 10.3026 98.7232 9.99042C98.4957 9.61296 98.1745 9.42422 97.7544 9.42422C97.3219 9.42422 96.9924 9.61296 96.7649 9.99042C96.5713 10.3026 96.4756 10.6831 96.4756 11.1328C96.4756 11.5695 96.5724 11.944 96.7649 12.2562C96.9986 12.6337 97.324 12.8224 97.7441 12.8224C98.1559 12.8224 98.4803 12.6306 98.713 12.2462C98.9117 11.9279 99.0126 11.5505 99.0126 11.1138Z" fill="white"/>
<path d="M105.931 13.485H104.853V10.7745C104.853 9.9393 104.528 9.52168 103.874 9.52168C103.554 9.52168 103.295 9.63613 103.096 9.86602C102.896 10.0959 102.796 10.367 102.796 10.6772V13.484H101.716V10.1049C101.716 9.68933 101.703 9.23859 101.678 8.7507H102.625L102.675 9.49056H102.705C102.832 9.26067 103.019 9.07094 103.264 8.91935C103.558 8.74267 103.884 8.65332 104.244 8.65332C104.696 8.65332 105.072 8.79587 105.372 9.08198C105.746 9.43234 105.931 9.95537 105.931 10.6501V13.485Z" fill="white"/>
<path d="M113.194 9.54084H112.006V11.8397C112.006 12.424 112.217 12.7161 112.635 12.7161C112.829 12.7161 112.989 12.7001 113.116 12.6669L113.144 13.465C112.931 13.5433 112.651 13.5825 112.306 13.5825C111.88 13.5825 111.548 13.456 111.308 13.203C111.067 12.95 110.948 12.5244 110.948 11.9271V9.54084H110.238V8.75278H110.948V7.88542L112.005 7.57422V8.75178H113.193V9.54084H113.194Z" fill="white"/>
<path d="M118.907 13.4853H117.827V10.7949C117.827 9.94658 117.501 9.52193 116.85 9.52193C116.349 9.52193 116.007 9.76789 115.82 10.2598C115.788 10.3632 115.769 10.4897 115.769 10.6383V13.4843H114.691V6.58154H115.769V9.43359H115.79C116.13 8.91458 116.617 8.65558 117.248 8.65558C117.695 8.65558 118.064 8.79813 118.358 9.08424C118.723 9.44062 118.907 9.97067 118.907 10.6714V13.4853Z" fill="white"/>
<path d="M124.8 10.8952C124.8 11.0839 124.785 11.2425 124.759 11.372H121.523C121.538 11.8398 121.692 12.1962 121.992 12.4432C122.266 12.664 122.619 12.7744 123.051 12.7744C123.53 12.7744 123.967 12.7002 124.36 12.5506L124.529 13.2814C124.069 13.4762 123.527 13.5735 122.9 13.5735C122.148 13.5735 121.556 13.3577 121.128 12.926C120.698 12.4944 120.484 11.9151 120.484 11.1883C120.484 10.4745 120.683 9.88024 121.084 9.4064C121.502 8.90044 122.067 8.64746 122.78 8.64746C123.479 8.64746 124.009 8.90044 124.367 9.4064C124.656 9.80796 124.8 10.3049 124.8 10.8952ZM123.77 10.6231C123.778 10.3109 123.707 10.0419 123.561 9.81498C123.374 9.52285 123.088 9.37628 122.702 9.37628C122.35 9.37628 122.063 9.51884 121.843 9.80494C121.664 10.0328 121.558 10.3049 121.523 10.6231H123.77Z" fill="white"/>
</svg>
